<svg width="56" height="46" viewBox="0 0 56 46" fill="none" xmlns="http://www.w3.org/2000/svg">
<path d="M10.8214 16.7964C10.4664 16.7964 10.125 16.6549 9.87364 16.4035L6.81641 13.3463L8.71243 11.4508L10.8219 13.5603L15.6948 8.6875L17.5908 10.5829L11.7703 16.4035C11.5177 16.6554 11.1775 16.7964 10.8214 16.7964Z" fill="#7143FF"/>
<path d="M32.7776 11.5411H24.1648C23.9893 9.40895 23.2533 7.37988 22.0089 5.62197C20.6031 3.63536 18.6602 2.13848 16.3888 1.29381C15.0515 0.795595 13.6436 0.543091 12.2032 0.543091C10.0088 0.543091 7.86087 1.14151 5.99151 2.27331C4.25737 3.32409 2.80629 4.80792 1.79465 6.56365C0.751243 8.37533 0.199219 10.444 0.199219 12.5461C0.199219 14.8746 0.866713 17.133 2.13032 19.0767C2.71119 19.9723 3.40868 20.7853 4.20302 21.4948V39.484C4.20302 40.0388 4.65368 40.4894 5.2085 40.4894H11.5057C11.987 43.451 14.5636 45.719 17.6592 45.719C20.7554 45.719 23.3321 43.451 23.8132 40.4894L32.7777 40.4889C33.3331 40.4889 33.7832 40.0382 33.7832 39.4834V12.5474C33.7832 11.992 33.3331 11.5419 32.7777 11.5419L32.7776 11.5411ZM17.6596 43.0367C15.7001 43.0367 14.1058 41.4418 14.1058 39.4829C14.1058 37.523 15.7006 35.9291 17.6596 35.9291C19.6195 35.9291 21.2138 37.5228 21.2138 39.4829C21.2138 41.4424 19.6195 43.0367 17.6596 43.0367ZM21.5252 12.5469C21.5252 12.5871 21.5252 12.6267 21.5247 12.6669C21.5247 12.672 21.5247 12.6777 21.5241 12.6828C21.4516 17.7481 17.2712 21.8686 12.2036 21.8686C11.5298 21.8686 10.8567 21.7961 10.2033 21.6534C8.6889 21.3228 7.26608 20.6072 6.0885 19.5825C5.43006 19.0107 4.85543 18.35 4.37929 17.6163C3.39929 16.1081 2.88125 14.3547 2.88125 12.5465C2.88125 9.25722 4.56379 6.27419 7.38102 4.56716C8.83152 3.68849 10.4994 3.22482 12.204 3.22482C13.3233 3.22482 14.4165 3.42071 15.4543 3.80738C19.0862 5.15821 21.5257 8.67064 21.5257 12.5465L21.5252 12.5469Z" fill="#7143FF"/>
<path d="M43.5417 30.155V27.4737H55.3663L46.8458 17.5712C46.6556 17.3493 46.3764 17.2213 46.0838 17.2213H37.4703C36.9149 17.2213 36.4648 17.672 36.4648 18.2268V39.4828C36.4648 40.0376 36.9144 40.4883 37.4703 40.4883H39.1727C39.6539 43.4499 42.2305 45.7178 45.3262 45.7178C48.4224 45.7178 50.999 43.4499 51.4802 40.4883H55.1936C55.7484 40.4883 56.1991 40.0376 56.1991 39.4828L56.1985 30.155L43.5417 30.155ZM45.3262 43.0365C43.3662 43.0365 41.7724 41.4417 41.7724 39.4828C41.7724 37.5228 43.3661 35.929 45.3262 35.929C47.2862 35.929 48.8804 37.5227 48.8804 39.4828C48.8804 41.4423 47.2855 43.0365 45.3262 43.0365Z" fill="#7143FF"/>
</svg>
