<svg width="47" height="45" viewBox="0 0 47 45" fill="none" xmlns="http://www.w3.org/2000/svg">
<path fill-rule="evenodd" clip-rule="evenodd" d="M47 21.483C46.964 20.8406 46.928 20.1983 46.8921 19.5916C46.8921 19.4489 46.8561 19.2704 46.8561 19.1277C46.8201 18.9849 46.8201 18.8422 46.7841 18.6994C46.7482 18.414 46.7122 18.1285 46.6762 17.843C46.5323 17.6289 46.5683 16.7724 46.2805 16.594C46.2805 16.2728 46.2445 16.1301 46.1006 15.8446C46.3164 15.9159 46.0286 15.4877 46.1725 15.5234C46.0286 15.2736 46.1006 14.9167 45.9567 14.8454C46.0286 15.2022 46.1725 15.4163 46.0646 15.5591C45.9927 15.2022 45.8488 14.881 45.8847 14.6312C45.7768 14.3814 45.489 13.9175 45.525 13.7034C45.3811 13.7391 45.453 13.3822 45.3091 13.2752C45.2372 13.2752 45.2731 13.3822 45.2372 13.3109C45.0933 13.1324 45.1292 12.8113 44.9853 12.6328C45.0213 12.7042 45.0213 12.7756 44.9853 12.7756C44.9134 12.6328 44.9853 12.5971 44.8774 12.4187C44.7695 12.4544 44.9134 12.6685 44.9134 12.7756C45.0573 12.8469 45.3091 13.4893 45.2731 13.5964C45.1652 13.4179 45.0573 13.3822 45.0933 13.1681C44.9853 13.1681 45.0933 13.3109 45.0213 13.3109C45.0933 13.4893 45.2012 13.4536 45.2372 13.6677C45.1652 13.6677 45.0573 13.5607 44.9853 13.525C45.0573 13.7391 45.1652 13.632 45.2372 13.8105C45.2012 13.8818 45.0933 13.6677 45.1292 13.8462C45.1652 13.8462 45.1652 13.8818 45.2012 13.9175C45.1652 13.9175 45.1652 13.9175 45.1292 13.9175C45.0933 13.9532 45.0573 13.9532 45.0213 13.9889C45.0213 13.9532 45.0573 13.9532 45.0573 13.9532C44.9493 13.8105 44.9853 13.7748 44.9494 13.632C44.8774 13.6677 44.9493 13.9175 44.9853 14.0246C44.9134 14.0603 44.8414 14.096 44.7335 14.1316C44.7335 14.1316 44.6975 14.1316 44.6975 14.096C44.6975 14.0603 44.6615 13.9889 44.6615 13.9532C44.6615 13.8818 44.6615 13.8462 44.5896 13.7748C44.5176 13.5964 44.4817 13.4536 44.5536 13.3466C44.3737 13.2395 44.1579 12.5258 44.1579 12.3117C44.0859 12.3117 44.014 12.2403 43.942 12.0975C43.942 12.0619 43.942 12.0262 43.942 11.9548C43.942 11.8834 43.906 11.8834 43.8341 11.8834C43.7981 11.7764 43.7621 11.705 43.7981 11.6693C43.7262 11.5979 43.6182 11.4909 43.5463 11.4195C43.5103 11.3481 43.4743 11.2768 43.4743 11.2054C43.4743 11.2054 43.4743 11.2054 43.5103 11.2054C43.4024 10.9556 43.2944 10.7415 43.1505 10.5274C42.8987 10.0278 42.5749 9.56384 42.2511 9.13561C42.1432 8.92149 41.9993 8.74306 41.8914 8.49326C41.8554 8.52895 41.8194 8.49326 41.7475 8.45758C41.7115 8.24346 41.4956 7.99366 41.2798 7.77954C41.2438 7.6368 41.1718 7.45837 41.0639 7.31562C41.0639 7.31562 41.0639 7.27994 41.0999 7.27994C41.0279 7.20857 40.992 7.17288 40.992 7.17288C40.956 7.13719 40.92 7.10151 40.884 7.06582C40.7401 6.92308 40.5962 6.74465 40.4883 6.6019C40.3444 6.45916 40.2005 6.31642 40.1285 6.13799C39.8047 5.63839 39.4809 5.10309 39.1212 4.63917C38.7254 4.17526 38.3297 3.71134 37.7541 3.42585C37.6462 3.3188 37.6462 3.49723 37.5382 3.42585C37.2144 3.10468 36.7827 2.85488 36.315 2.53371C35.8473 2.24822 35.3796 1.96273 34.9479 1.71293C34.3363 1.32038 33.7967 0.856467 33.1131 0.606666C32.7174 0.463922 32.3576 0.392546 31.9979 0.35686C31.6381 0.321174 31.3503 0.356861 31.0265 0.463919C30.4149 0.214117 29.5875 0.499608 29.0478 0.0713763C28.9039 0.0713763 28.9039 0.214119 28.688 0.142747C28.5441 0.107061 28.5441 0.035686 28.4722 0C28.4362 0.17843 28.5441 0.142748 28.4002 0.249806C28.8679 0.285492 29.0478 0.356863 29.4795 0.321177C29.5875 0.356863 29.6234 0.428233 29.7673 0.463919C30.7027 0.463919 31.818 0.57098 33.0052 0.963525C34.1205 1.35607 35.0918 2.17685 35.9193 2.39096C36.0632 2.49802 35.9193 2.60508 35.9912 2.71214C36.4589 2.81919 36.6388 3.24742 37.0705 3.49723C37.3943 3.71134 37.7541 3.74703 38.1138 3.99683C38.4376 4.28232 38.6895 4.53212 38.9053 4.81761C39.1212 5.10309 39.373 5.42427 39.6968 5.78113C39.6968 5.81682 39.6968 5.81682 39.6968 5.8525C39.5169 5.70976 39.409 5.6027 39.1572 5.38858C39.1931 5.31721 39.3011 5.49564 39.337 5.45995C39.1572 5.28152 38.9773 5.13878 38.8334 5.03172C38.6895 4.88898 38.5815 4.78192 38.4736 4.5678C38.4017 4.67486 38.1858 4.46075 38.0779 4.49643C38.2937 4.71055 38.5815 4.96035 38.5815 5.21015C38.3657 5.10309 38.4017 4.88898 38.2578 4.88898C38.4017 5.13878 38.5456 5.28153 38.7614 5.42427C38.9413 5.56701 39.1572 5.70976 39.373 5.95956C39.337 5.99525 39.3011 5.99524 39.2651 5.99524C39.373 6.20936 39.5889 6.31642 39.7688 6.45916C39.8047 6.53053 39.8407 6.56622 39.8767 6.63759C39.8407 6.63759 39.8047 6.6019 39.7688 6.6019C39.8047 6.67327 39.8407 6.74465 39.8767 6.81602C39.8407 6.78033 39.8047 6.78033 39.8047 6.78033C39.8407 6.81602 39.8767 6.85171 39.9127 6.88739C39.9127 6.92308 39.9127 6.95877 39.9127 6.99445C39.6249 6.85171 39.373 6.78033 39.0852 6.70896C39.0492 6.63759 39.0133 6.6019 39.0133 6.53053L38.9413 6.6019C38.9773 6.63759 39.0133 6.67328 39.0133 6.67328C38.9773 6.67328 38.9413 6.67328 38.9053 6.63759C38.9053 6.63759 38.8693 6.60191 38.8693 6.56622C38.9053 6.53053 38.8334 6.38779 38.7974 6.49485C38.8334 6.53054 38.8694 6.56622 38.8334 6.6019C38.7614 6.56622 38.6535 6.53053 38.5815 6.45916C38.5096 6.38779 38.4736 6.24504 38.4017 6.17367C38.2937 6.06661 38.0419 6.06661 37.9699 6.17367C37.934 6.20936 37.934 6.24505 37.898 6.31642C37.826 6.28073 37.7181 6.20936 37.6462 6.17367C37.6821 6.03093 37.6462 5.8525 37.5742 5.70975C37.5742 5.67407 37.5022 5.67407 37.4663 5.67407L37.4303 5.70975C37.4303 5.70975 37.4303 5.70976 37.4303 5.74544C37.3224 5.70976 37.1785 5.6027 37.1425 5.45995C37.1065 5.49564 37.1065 5.53133 37.1065 5.6027C37.2144 5.67407 37.2864 5.70975 37.3943 5.81681V5.8525C37.4303 5.92387 37.4663 5.95956 37.5022 6.03093C37.2504 5.78113 36.9986 5.6027 36.7827 5.42427C36.7108 5.38858 36.6748 5.3529 36.6388 5.31721C36.6388 5.31721 36.6388 5.31721 36.6748 5.28152C36.6748 5.24584 36.6388 5.24584 36.6388 5.21015L36.6028 5.24584C36.423 5.13878 36.2791 5.06741 36.0992 4.99603C36.0272 4.92466 35.9912 4.88898 35.9553 4.81761C35.8833 4.78192 35.8473 4.74624 35.7754 4.71055C34.84 3.85409 33.5808 3.03331 32.2137 2.39096C30.7387 1.71293 29.1198 1.2847 27.7886 1.14196C27.5008 0.999211 27.213 0.89215 26.8892 0.820778C26.5654 0.749406 26.2417 0.713719 25.8459 0.713719C25.4142 0.35686 24.6227 0.285491 23.8312 0.321177C23.6514 0.321177 23.4355 0.35686 23.2556 0.35686C23.0757 0.35686 22.8959 0.392548 22.716 0.392548C22.3562 0.392548 22.0684 0.392549 21.8525 0.321177C21.4568 0.785094 20.1976 0.678033 19.7659 0.535289C19.694 0.713719 19.5141 0.785092 19.2982 0.820778C19.0824 0.856464 18.8305 0.856464 18.6147 0.820778C18.6147 0.749406 18.9025 0.606665 18.5787 0.678037C18.4348 0.678037 18.4348 0.785092 18.3628 0.820778C18.2189 0.749406 18.0031 0.713724 17.8951 0.606666C17.6073 0.642352 17.5714 0.74941 17.2835 0.785096C17.3555 0.678038 17.3555 0.570979 17.5354 0.499607C17.9311 0.321177 18.039 0.463919 18.2549 0.463919C18.2189 0.356861 18.075 0.356861 18.2909 0.285489C18.4348 0.535291 18.7945 0.107061 19.0464 0.321177C18.9025 0.356863 18.7945 0.392547 18.7586 0.463919C19.0464 0.356861 19.4061 0.249802 19.658 0.17843C19.586 0.17843 19.4421 0.178433 19.586 0.142747C18.147 0.0713752 16.8159 0.356864 15.5567 0.785096C14.2975 1.21333 13.1103 1.85567 11.9231 2.56939C11.7432 2.53371 11.4554 2.67645 11.2035 2.78351C10.5919 3.3188 10.0883 3.63997 10.1962 4.13957C10.9517 3.60428 11.5273 3.069 12.9304 2.39096C13.2542 2.35528 13.578 2.39096 13.7219 2.60508C12.7146 3.24742 11.4554 3.63997 10.5919 4.42506C10.484 4.53212 10.448 4.63918 10.3401 4.71055C9.58461 5.28153 9.15289 5.53133 8.64922 5.92387C7.64189 6.67328 6.77845 7.74385 5.951 8.67169C5.77112 8.88581 5.41135 8.95718 5.41135 9.31404C5.66319 9.06424 5.91502 8.81443 6.13088 8.56463C6.34674 8.31483 6.5626 8.06503 6.67052 7.85091C6.95834 7.6368 7.3181 7.31562 7.67786 6.99445C8.0736 6.67328 8.43336 6.31642 8.75715 6.06661C8.93703 5.95956 9.11692 5.8525 9.2968 5.74544C9.47668 5.63838 9.62058 5.53133 9.80047 5.42427C10.1243 5.21016 10.4121 4.99604 10.7359 4.78192C11.3474 4.318 12.031 3.85409 12.9664 3.46154C13.1822 3.63997 13.3621 3.46154 13.6859 3.35448C13.7938 3.60429 14.0457 3.60429 14.4054 3.46154C14.5493 3.3188 14.2256 3.35448 14.3695 3.21174C14.5853 3.21174 14.8012 3.21174 14.9091 3.35448C14.7292 3.42586 14.5493 3.53291 14.4414 3.53291C14.5853 3.71134 14.9811 3.49722 15.089 3.74703C14.7652 3.92546 14.4774 4.10389 14.1896 4.28232C13.9018 4.49643 13.6499 4.67487 13.3981 4.88898C12.8944 5.31721 12.3908 5.70976 11.7792 6.03093C11.5633 6.03093 11.3834 5.92387 11.1316 5.99524C11.1316 6.24504 11.5993 6.03093 11.7792 6.13799C11.6712 6.31642 11.4554 6.49485 11.2755 6.67328C11.2395 6.74465 11.1676 6.78034 11.1316 6.85171H11.0956C10.8798 6.88739 10.6279 6.99445 10.52 7.20857C10.52 7.24425 10.484 7.27994 10.448 7.31562C10.2682 7.45837 10.1243 7.56543 9.98035 7.70817C9.98035 7.70817 9.98035 7.70817 9.94437 7.70817C9.94437 7.74386 9.90839 7.74385 9.90839 7.77954C9.87242 7.81523 9.83644 7.81523 9.83644 7.85091C9.65656 7.99366 9.4407 7.99366 9.18887 7.99366C9.11692 7.99366 9.08094 8.02935 9.04496 8.10072C9.04496 8.1364 9.00899 8.20777 8.97301 8.20777C8.90106 8.27914 8.8291 8.42189 8.6852 8.27915C8.54129 8.31483 8.50532 8.3862 8.43336 8.49326C8.36141 8.67169 8.25348 8.81444 8.00165 8.81444C7.96567 8.81444 7.89372 8.81443 7.85774 8.85012C7.71384 9.02855 7.462 9.13561 7.39005 9.38541C7.35407 9.52815 7.21017 9.49247 7.10224 9.52816C7.10224 9.56384 7.06626 9.63521 7.03029 9.63521C6.67052 9.74227 6.41869 9.95639 6.16686 10.2062C6.02295 10.3489 5.91502 10.456 5.73514 10.563C5.4833 10.6701 5.19549 10.7772 5.23147 11.134C5.23147 11.1697 5.15952 11.2411 5.08757 11.3125C5.01561 11.3838 4.90768 11.4909 4.83573 11.5623C4.79975 11.5979 4.76378 11.705 4.65585 11.5979C4.61987 11.5266 4.47597 11.4909 4.5839 11.3838C4.61987 11.3481 4.61987 11.3125 4.61987 11.2411C4.61987 11.2054 4.5839 11.1697 4.5839 11.0983C4.54792 11.0983 4.54792 11.134 4.51194 11.134C4.36804 11.2411 4.26011 11.4195 4.26011 11.5979C4.26011 11.705 4.29609 11.7407 4.22413 11.8121C4.1162 11.9191 4.00828 12.0619 3.79242 12.0619C3.57656 12.0619 3.72046 12.2046 3.72046 12.276C3.68449 12.4187 3.61254 12.6328 3.46863 12.6685C3.32472 12.7399 3.25277 12.8113 3.18082 12.9183C3.2168 12.7756 3.25277 12.6328 3.28875 12.5258C3.57656 11.705 4.29609 10.8485 4.5839 10.0634C4.94366 9.95639 4.65585 9.81364 5.05159 9.52816C5.01561 9.4211 4.94366 9.24266 4.83573 9.27835C4.79975 9.27835 4.7278 9.31404 4.65585 9.34973C4.47597 9.81364 4.22413 10.0634 4.08023 10.4917C3.2168 11.3481 2.7491 12.383 2.38934 13.4893C2.35336 13.4893 2.31739 13.4893 2.28141 13.4893C2.28141 13.525 2.31739 13.5607 2.35336 13.5964C2.35336 13.632 2.35336 13.632 2.31739 13.6677C2.28141 13.7748 2.24543 13.8818 2.20946 13.9889C2.13751 14.0246 2.10153 14.0603 2.02958 14.096C1.92165 14.1673 1.81372 14.2744 1.81372 14.4171C1.81372 14.881 1.81372 14.881 1.34603 15.1665C1.31005 15.2022 1.27407 15.2022 1.2381 15.2022C1.2381 15.2736 1.16614 15.345 1.09419 15.345C1.09419 15.452 1.27407 15.5591 1.09419 15.7018C0.986263 15.7732 0.91431 15.8446 0.842358 15.9516C0.806381 15.9873 0.806381 16.023 0.770405 16.0587V16.023C0.770405 16.0587 0.734429 16.0944 0.734429 16.1301C0.698452 16.1657 0.662476 16.2014 0.590523 16.2371C0.446618 16.3085 0.590523 16.4512 0.626499 16.5226C0.410641 16.8081 0.6265 17.2006 0.374665 17.4504C0.374665 17.6289 0.410642 17.843 0.374665 18.0214C0.338689 18.2355 0.23076 18.414 0.266736 18.6281C0.302712 18.8065 0.194783 18.8779 0.0508778 18.9492C0.0149014 18.9492 -0.0210743 19.0563 0.014902 19.0563C0.122831 19.1991 0.0508783 19.3418 0.014902 19.4845C0.194784 19.6987 0.158807 19.9841 0.158807 20.2339C0.158807 20.4837 0.23076 20.7692 0.014902 20.9833C-0.0210743 21.019 0.0149016 21.1261 0.0868543 21.1618C0.194783 21.1975 0.266736 21.2331 0.266736 21.3402C0.266736 21.4473 0.266736 21.5186 0.266736 21.6257C0.302712 22.0182 0.194783 22.4108 0.410641 22.8033C0.446618 22.839 0.410642 22.9461 0.374665 23.0174C0.338689 23.0888 0.266736 23.1245 0.338689 23.1959C0.446618 23.3029 0.410641 23.4457 0.410641 23.5884C0.374665 23.8739 0.374665 24.0167 0.446618 24.1594C0.554547 24.3378 0.6265 24.5519 0.806382 24.6947C0.878334 24.7661 0.950286 24.8374 0.950286 24.9088C0.950286 25.1229 1.02224 25.337 1.09419 25.5155C1.05822 25.8723 1.2381 26.1935 1.382 26.5147C1.41798 26.5504 1.45396 26.6217 1.45396 26.6217C1.74177 26.5504 1.77774 26.8358 1.95762 26.9072C2.13751 27.0143 2.31739 27.0856 2.46129 27.157C2.49727 27.2284 2.53325 27.2998 2.56922 27.4068C2.56922 27.4425 2.56922 27.4425 2.6052 27.4782C2.64118 27.5496 2.67715 27.6566 2.67715 27.728C2.56922 27.8351 2.49727 27.9421 2.6052 28.1205C2.71313 28.299 2.7491 28.5488 2.82106 28.7629C2.85703 28.8343 2.85703 28.9056 2.92898 28.9413C3.03691 28.977 3.07289 29.0127 3.03691 29.1197C3.00094 29.2268 3.00094 29.3695 2.92898 29.4409C2.7491 29.6193 3.00094 29.7264 3.00094 29.8692C3.00094 29.9405 3.14484 29.9405 3.18082 29.9048C3.32472 29.7978 3.43265 29.6907 3.54058 29.5837C3.64851 29.4766 3.61254 29.4052 3.54058 29.2982C3.46863 29.0841 3.50461 28.8343 3.54058 28.5845C3.54058 28.5488 3.57656 28.5488 3.57656 28.5488L3.61254 28.5845C3.61254 28.7629 3.79242 28.8343 3.90035 28.977C3.93632 29.0484 3.75644 29.1554 3.90035 29.1911C4.1162 29.2625 4.18816 29.4052 4.26011 29.5837C4.33206 29.7978 4.43999 30.0119 4.51194 30.226C4.61987 30.4758 4.7278 30.6899 4.87171 30.904C4.90768 30.9754 4.94366 31.0468 4.94366 31.0825C4.90768 31.3323 5.01561 31.5107 5.19549 31.6178C5.37538 31.7605 5.37538 31.9389 5.37538 32.1174C5.37538 32.2244 5.3394 32.3672 5.44733 32.4385C5.66319 32.617 5.69916 32.8668 5.84307 33.0809C5.91502 33.188 5.91502 33.0452 5.951 33.0095C5.98697 32.9738 5.98697 32.9381 6.02295 32.9025C6.02295 32.9381 6.05893 32.9381 6.05893 32.9738C6.05893 33.2593 6.13088 33.5091 5.98697 33.7946C5.87904 33.973 5.951 34.1871 6.05893 34.4013C6.27478 34.7224 6.27478 34.7938 6.59857 34.9009C6.85041 35.0079 6.92236 35.0436 6.92236 35.2934C6.92236 35.5075 6.92236 35.7216 7.10224 35.8644C7.13822 35.9001 7.17419 35.9358 7.17419 35.9715C7.17419 36.2926 7.42603 36.4711 7.60591 36.6495C7.74981 36.7922 7.89372 36.9707 8.10958 37.042C8.21751 37.2562 8.39739 37.3989 8.54129 37.5773C8.6852 37.7914 9.00899 37.7914 9.08094 38.0769C9.08094 38.1126 9.15289 38.1126 9.18887 38.0412C9.22484 38.0056 9.18887 37.9342 9.22484 37.8985C9.22484 37.8985 9.22484 37.8628 9.26082 37.8628C9.36875 37.9342 9.51266 38.0412 9.62058 38.1126C9.54863 38.0412 9.4407 37.8628 9.33277 37.7558V37.7201C9.36875 37.613 9.26082 37.5773 9.15289 37.5416C9.08094 37.5416 9.00899 37.4703 9.00899 37.3989C9.00899 37.3632 8.97301 37.3275 8.93703 37.2918H8.97301C8.93703 37.2561 8.93703 37.2562 8.90106 37.2205C8.79313 37.042 8.57727 36.8993 8.46934 36.7209C8.39739 36.5781 8.21751 36.4354 8.21751 36.2926C8.21751 36.1142 8.32544 35.9358 8.39739 35.793C8.43336 35.7217 8.43336 35.6503 8.46934 35.6146C8.46934 35.5789 8.50532 35.5789 8.50532 35.5789C8.57727 35.5432 8.54129 35.5432 8.54129 35.6503C8.57727 35.8287 8.6852 35.8644 8.82911 35.8644C8.97301 35.8644 8.93703 35.9358 8.90106 36.0428C8.82911 36.1856 9.00899 36.1142 9.08094 36.1856C9.11692 36.2212 9.15289 36.2926 9.08094 36.2926C8.86508 36.2926 8.90106 36.4354 8.97301 36.5424C8.86508 36.6495 8.86508 36.7922 8.90106 36.935C8.90106 36.9707 8.93703 36.9707 8.93703 37.0063C8.93703 37.0063 8.97301 37.0063 9.00899 36.9707C9.04496 36.935 9.11691 36.8636 9.15289 36.8279C9.22484 36.5424 9.36875 36.4354 9.65656 36.4354C9.76449 36.5067 9.87242 36.5067 9.94437 36.5067C9.90839 36.5781 9.90839 36.6495 9.90839 36.6852L9.87242 36.6495L9.90839 36.6852C9.90839 36.7209 9.94437 36.7565 9.98035 36.7922C10.0163 36.8279 10.0163 36.8993 9.98035 36.9707C9.94437 36.935 9.90839 36.935 9.87242 36.8993C9.94437 36.7922 9.69254 36.5424 9.65656 36.6852C9.90839 36.7209 9.65656 36.8279 9.69254 36.8636C9.76449 36.8993 9.83644 37.0063 9.90839 37.0777C9.83644 37.2205 9.76449 37.3632 9.72851 37.5059C9.65656 37.7557 9.65656 37.9699 9.87242 38.1483C10.0883 38.291 10.1602 38.5052 10.1243 38.755C10.1243 38.8263 10.1243 38.8977 10.1243 38.9691C10.1243 39.0048 10.1243 39.0404 10.1243 39.0761C10.0883 39.0761 10.0523 39.0761 10.0163 39.0404C10.0523 39.0761 10.0883 39.1118 10.1602 39.1475C10.1602 39.1832 10.1602 39.1832 10.1602 39.2189C9.87242 39.0761 9.58461 38.862 9.2968 38.6122C9.08094 38.3981 8.8291 38.2197 8.61325 38.0056C8.39739 37.7914 8.21751 37.613 8.00165 37.4703C8.0736 37.5416 7.78579 37.3989 7.71384 37.2561C7.71384 37.5059 8.14555 37.9342 8.18153 38.291C8.36141 38.4338 8.46934 38.5765 8.46934 38.7193C8.54129 38.7906 8.61325 38.8263 8.64922 38.8263C8.57727 39.0761 9.62058 39.7542 9.40473 39.8255C9.58461 39.8969 9.76449 39.9326 10.0163 40.0753C10.0883 40.0397 9.98035 39.9683 10.0523 39.9326C10.1962 40.004 10.3041 40.0753 10.3761 40.0397C10.0883 39.8612 9.98035 39.9683 9.72851 39.8255C9.83644 39.7542 9.72851 39.6471 9.58461 39.6114C9.4407 39.6471 9.72851 39.7185 9.65656 39.7898C9.58461 39.7542 9.58461 39.8255 9.47668 39.7542C9.65656 39.6828 9.08094 39.5044 9.04496 39.2902C9.08094 39.2546 9.11692 39.2189 9.18887 39.2546C9.47668 39.54 9.40473 39.3259 9.54863 39.3616C9.69254 39.433 9.62058 39.5044 9.72851 39.6114C9.83644 39.5044 10.0883 39.6471 10.2682 39.7898C10.52 39.8612 10.7718 39.8969 11.0237 39.9326L11.0596 39.9683C11.2035 40.0753 11.3474 40.1824 11.5273 40.2894C11.5633 40.3251 11.5993 40.2895 11.6353 40.2181C11.6353 40.0753 11.7072 39.9326 11.5993 39.7898C11.4554 39.6471 11.3474 39.433 11.0956 39.433C11.0237 39.433 10.9517 39.3973 10.9157 39.3616C10.8798 39.2903 10.8078 39.2189 10.7718 39.1475H10.8078C10.7718 39.1475 10.7359 39.1118 10.6999 39.0761C10.6279 38.9691 10.556 38.8263 10.484 38.7193C10.556 38.5408 10.6279 38.3267 10.6999 38.1483C10.7359 38.0769 10.7359 38.0055 10.7359 37.9699C10.7359 37.9342 10.6999 37.9342 10.6999 37.9342C10.448 38.1483 10.4121 37.8271 10.2682 37.7558C10.1602 37.6844 10.1602 37.5773 10.1602 37.4703C10.3041 37.4346 10.3761 37.7201 10.556 37.6487L10.5919 37.6844C10.6999 37.8271 10.8438 38.0056 11.0596 38.1126C11.2395 38.2554 11.4554 38.3624 11.5273 38.4695C11.5273 38.4338 11.5993 38.3981 11.6353 38.3981C11.7432 38.5408 12.2469 38.6122 11.995 38.6479C12.1389 38.755 12.2109 38.7193 12.3188 38.6836C11.9231 38.5408 11.6353 38.291 11.3474 38.2554C11.3115 38.0769 11.0596 37.9699 10.8798 37.8628C10.8078 37.8271 10.7359 37.7914 10.6999 37.7201C10.7359 37.7201 10.7718 37.6844 10.8078 37.6844V37.6487C10.7718 37.613 10.7359 37.5773 10.7359 37.5416C10.6999 37.4703 10.6999 37.3989 10.7718 37.3632C10.8438 37.3275 10.9157 37.3275 10.9517 37.3632C10.9877 37.3989 11.0596 37.4346 11.1316 37.4703C11.1316 37.5416 11.1316 37.613 11.1676 37.6844C11.2035 37.7201 11.2755 37.7558 11.3474 37.7558C11.4554 37.7558 11.5273 37.7557 11.6353 37.7914C11.5993 37.7914 11.5273 37.7914 11.6712 37.8628C11.7072 37.8628 11.7792 37.8628 11.8151 37.8985C11.8511 37.8985 11.8511 37.8985 11.8511 37.8985C12.1389 38.0056 12.4267 38.2197 12.6426 38.2554C12.4987 38.184 12.3908 38.1126 12.2828 38.0056C12.3548 38.0056 12.4267 38.0056 12.4987 38.0056L12.5347 37.9699C12.5347 37.9699 12.5347 37.9342 12.4987 37.9342C12.3908 37.8628 12.2828 37.8628 12.2109 37.9342C12.2109 37.9342 12.2109 37.9699 12.1749 37.9699C12.103 37.9342 12.031 37.8985 11.959 37.8271C12.031 37.7914 12.103 37.7201 12.1749 37.7558C12.2469 37.7558 12.3548 37.7558 12.4267 37.7558C12.4987 37.8271 12.5706 37.8985 12.6786 37.9342C12.7145 37.8628 12.8585 38.0056 12.8585 37.8985C12.8585 37.8628 12.8585 37.8628 12.8585 37.8271C13.0024 37.8985 13.1463 37.8985 13.2902 37.8985C13.4341 37.8985 13.542 37.9342 13.614 38.1126C13.6499 38.2197 13.7219 38.291 13.7938 38.3267C13.7938 38.3981 13.8298 38.4338 13.9018 38.5051C13.7579 38.5051 13.6859 38.6479 13.506 38.5765C13.578 38.6122 13.6499 38.6479 13.6499 38.7193C13.578 38.755 13.4701 38.6836 13.3981 38.7906C13.578 38.8263 13.7579 38.9334 13.9377 39.1118C14.0097 38.9691 14.2615 39.1475 14.3335 39.1832C14.2615 39.2189 14.1176 39.1832 14.0097 39.1118C14.0457 39.2902 13.8298 39.0761 13.8298 39.1832C14.0097 39.2903 14.6213 39.1832 14.7292 39.5044C14.3335 39.3259 14.2256 39.3973 13.9377 39.3616C13.7938 39.5044 13.8298 39.6114 13.9737 39.6828L14.0097 39.6114C14.1176 39.6471 14.1176 39.6828 14.1896 39.7185C14.1536 39.7185 14.1176 39.7542 14.1536 39.7898C14.1176 39.8612 14.0816 39.7185 13.9737 39.7185C14.1176 39.8255 14.3335 39.9326 14.4774 40.0753C14.9091 40.1824 15.4487 40.5749 15.8085 40.5749C15.6646 40.5036 15.3408 40.4322 15.3408 40.2538C15.4847 40.1467 15.5927 40.4322 15.7006 40.3251C15.5207 40.2181 15.4128 40.2538 15.3408 40.111C15.4128 40.1467 15.4128 40.0753 15.4487 40.0753C15.6286 40.1824 15.8085 40.3251 15.7725 40.3965C15.7725 40.2895 15.8805 40.5036 15.9164 40.4322C15.8445 40.3965 15.8805 40.3251 15.8805 40.2538C15.6646 40.1824 15.5207 40.0753 15.5207 39.9683C15.8085 39.9326 16.0244 40.111 16.2402 40.111C16.2762 40.1824 16.3482 40.2895 16.4201 40.3251C16.4921 40.3965 16.564 40.3608 16.6 40.3608C16.6719 40.3251 16.6719 40.2538 16.7799 40.2894C16.8878 40.3608 17.0317 40.3965 17.1396 40.5036C17.3555 40.7177 17.6073 40.8604 17.8951 40.9675L17.8592 41.0032C17.5714 40.9675 17.3915 41.0389 17.1037 40.8961C17.1037 40.9318 17.1396 40.9318 17.1396 40.9318C16.9598 40.8961 16.7799 40.8604 16.6 40.8247C16.4921 41.0032 16.8159 40.8247 16.7799 40.9675C16.6719 41.0032 16.2762 40.8961 16.2762 40.7891C16.3482 40.8247 16.4561 40.8604 16.528 40.8961C16.4921 40.8247 16.3841 40.7891 16.2762 40.7534C16.2043 40.7177 16.1683 40.682 16.1323 40.6463C16.0963 40.6463 15.8445 40.6463 15.9524 40.682C15.9524 40.682 15.9524 40.682 15.9884 40.682C15.6286 40.6106 15.3048 40.4679 14.9811 40.3965C14.5853 40.2538 14.1896 40.1467 13.7938 40.1467C13.7219 39.9683 13.542 39.9326 13.3981 39.8969C12.9664 39.7542 12.6426 39.5044 12.4267 39.2902C12.2828 39.4687 12.103 39.0048 11.8871 39.0048C11.8871 38.9691 11.8511 38.9334 11.9231 38.9334C11.4914 38.8977 11.4554 38.4338 11.0237 38.291C11.2035 38.4338 10.7718 38.3267 11.1316 38.5408C11.2395 38.5052 11.0956 38.3624 11.2035 38.4338C11.0956 38.5765 11.4914 38.755 11.5273 38.9691C11.8511 38.9691 12.031 39.2546 12.3548 39.4687C12.3548 39.54 12.3548 39.7542 12.5347 39.7185C12.3548 39.6471 12.6066 39.6471 12.6426 39.6114C12.8225 39.6828 12.9664 39.8255 13.1463 39.9326C13.0383 39.9683 12.9304 40.004 12.8944 40.004C12.9304 40.0397 12.9664 40.0397 13.0024 40.0397C13.0024 40.0753 13.0024 40.0753 12.9304 40.1467C13.1463 40.2895 13.1822 40.2181 13.2902 40.2181C13.1463 40.3608 13.7938 40.5393 13.9377 40.7177C13.9377 40.6463 14.0097 40.6463 14.1176 40.682C14.0816 40.7177 14.0457 40.7177 14.0817 40.7534C15.017 41.0745 15.9164 41.3243 16.7799 41.5741C17.1037 41.5385 17.9671 41.6812 17.8592 41.9667C18.9025 42.2879 20.0537 42.3592 21.2409 42.4663C21.6367 42.3236 22.1403 42.3949 22.5001 42.4306C22.4641 42.4306 22.608 42.3592 22.716 42.3949C23.0757 42.502 22.4641 42.6447 22.1403 42.609C22.4282 42.609 22.1403 42.8232 22.1044 42.8945C21.4928 42.9659 21.0251 42.9302 20.4854 42.9659C20.3415 42.9302 20.3415 42.8588 20.1616 42.8588C19.9098 42.9659 19.694 42.7518 19.4061 42.7518C19.2622 42.7518 19.1183 42.8588 18.9744 42.8588C18.7945 42.8232 18.6506 42.6804 18.5067 42.6804C18.4348 42.6804 18.2549 42.6804 18.183 42.6804C18.183 42.6804 18.2189 42.609 18.2549 42.6447C18.111 42.609 18.0031 42.6804 17.8592 42.6804C17.8232 42.6804 17.8232 42.5734 17.8232 42.5734C17.6433 42.4663 17.3915 42.5734 17.1756 42.5377C17.0317 42.4306 17.3915 42.4306 17.1396 42.3949C17.1037 42.502 16.8878 42.4306 16.7799 42.4663C16.6719 42.2522 16.1683 42.3236 16.2762 42.1808C16.0963 42.1451 15.8445 42.1451 15.5927 42.0737C15.3408 42.0024 15.125 41.9667 14.9451 41.8953C15.017 41.931 14.9811 41.9667 14.9811 42.0024C14.5853 41.8596 14.4774 41.824 14.2615 41.7883C14.2615 41.7526 14.2975 41.7526 14.3335 41.7526C14.0457 41.6455 13.7579 41.5742 13.542 41.4671C13.3261 41.36 13.1103 41.253 12.9304 41.1816C12.8585 41.1816 12.8225 41.2173 12.7505 41.2173C12.6426 41.0745 12.6066 41.1102 12.4987 41.1459C12.4267 41.0389 12.4987 40.9675 12.3548 40.9318C12.4987 41.0745 12.103 40.9318 11.995 40.8961C12.031 40.8247 11.8871 40.7891 11.959 40.7534C11.959 40.682 12.103 40.7891 12.1389 40.7534C11.8151 40.6106 11.7792 40.682 11.6712 40.7891C11.7792 40.8961 11.959 40.9675 12.067 41.0745C12.2469 40.9675 12.7146 41.3243 12.8225 41.4314C12.7505 41.3957 12.7505 41.4671 12.7145 41.4314C12.7145 41.3957 12.7505 41.36 12.7145 41.3244C12.3548 41.36 12.067 41.1102 11.7072 40.8961C11.7792 41.0745 11.5633 40.9318 11.5273 41.0389C11.9231 41.2173 12.3188 41.3957 12.6786 41.5741C12.5347 41.4314 12.8585 41.5741 12.9304 41.5385C13.0024 41.6098 13.2542 41.824 13.3621 41.824C13.2902 41.7883 13.3261 41.7526 13.3621 41.7169C13.506 41.931 13.8658 42.0024 14.1536 42.1451C13.8298 42.0024 13.9737 42.1451 13.6859 42.0737C13.9018 42.1808 14.0097 42.2879 14.2256 42.2522L14.1896 42.3236C14.4414 42.3592 14.7652 42.502 15.089 42.6447C15.2689 42.7161 15.4128 42.7875 15.5927 42.8588C15.7725 42.8945 15.9524 42.9302 16.0963 42.9659C16.0963 43.0016 16.0603 43.0373 16.1323 43.073C16.7439 43.1086 17.5354 43.5012 17.8232 43.4298C17.8232 43.5369 17.5354 43.5369 17.4274 43.4298C17.4274 43.6439 17.7872 43.5726 17.9311 43.5726V43.6439C18.147 43.6439 18.2909 43.5369 18.5067 43.5369C18.7945 43.5726 18.8665 43.7153 19.2622 43.751C19.1543 43.6082 19.658 43.7867 19.8379 43.751C19.5501 43.7153 19.694 43.6796 19.9458 43.7153C20.1976 43.7153 20.4854 43.751 20.4854 43.858C20.3056 43.8224 20.2696 43.9294 20.1616 43.9294C20.4854 43.9294 20.3056 43.9651 20.3775 44.1079C20.6293 44.0722 20.6653 44.1792 20.8092 44.1792C20.7732 44.0722 20.5574 44.0722 20.4854 44.0008C20.5574 44.0008 20.5934 44.0008 20.6653 43.9651C20.8092 44.0008 20.8812 44.1792 20.9891 44.0365C20.9891 44.0722 20.9891 44.1435 21.0251 44.1435C20.5574 44.1435 20.2696 44.1792 19.9458 44.1435C19.658 44.1079 19.3342 44.0365 18.9385 43.9294C18.6866 43.9294 18.4348 43.8581 18.147 43.8224C17.8951 43.751 17.6073 43.7153 17.3555 43.751C17.3555 43.6796 17.1756 43.6796 17.2116 43.6082C16.4921 43.5369 15.8445 43.0373 15.2329 43.1087C15.3768 43.18 15.6286 43.2157 15.5927 43.2871C15.4128 43.2514 14.6213 43.073 14.8731 42.9302C14.7292 42.8945 14.6213 42.8945 14.4414 42.8232C14.3335 42.9302 14.7292 42.9302 14.6932 43.0016C14.4414 42.9302 13.8658 42.7875 13.7579 42.5734C13.2542 42.3949 12.8585 42.2165 12.4987 42.0381C12.1389 41.8596 11.8151 41.6812 11.5633 41.4314C11.4554 41.5385 11.4914 41.3243 11.3834 41.2887C11.2395 41.253 11.3474 41.4314 11.2755 41.3957C11.2395 41.36 11.2035 41.3957 11.1676 41.36C10.9517 41.2887 11.0237 41.1816 10.9157 41.1102C10.8078 41.1459 10.5919 40.9675 10.4121 40.8604C10.484 40.6463 10.0523 40.5749 9.87242 40.4322C9.47668 40.1824 9.08094 39.8255 8.6852 39.5044C8.28946 39.1832 7.89372 38.8977 7.64189 38.6479C8.03763 39.0761 8.25348 39.1118 8.54129 39.5044C8.86508 39.6471 9.15289 39.8969 9.4407 40.1467C9.76449 40.3965 10.0883 40.6106 10.4121 40.7891C10.3761 40.8604 10.448 40.9318 10.448 40.9675C10.3761 40.9675 10.2322 40.8961 10.1602 40.8961C10.3041 41.0745 10.9517 41.2173 11.1676 41.5741C11.2395 41.5028 11.3834 41.6455 11.4914 41.7169C11.7432 41.6098 12.5347 42.0024 12.7865 42.1808C12.7505 42.2165 12.3188 41.9667 12.4627 42.1094C12.6066 42.1808 12.7865 42.2522 12.7505 42.3236C12.6426 42.2879 12.4627 42.1451 12.4267 42.2165C12.5706 42.3236 12.9304 42.4306 12.7865 42.5734C13.0024 42.6804 12.7505 42.4306 13.0024 42.5377C13.0024 42.5734 13.0383 42.5734 13.1103 42.609C13.1103 42.7518 12.9664 42.7161 12.8585 42.7161C13.0743 42.8945 13.1103 42.7875 13.1463 42.7518C13.2902 42.8945 12.9664 42.7875 13.0743 42.9302C13.2902 43.073 13.542 43.18 13.6499 43.2157C13.578 43.18 13.578 43.1443 13.578 43.1087C13.6859 43.1443 13.8298 43.1086 13.8658 43.2157C13.7938 43.18 13.7219 43.1443 13.6859 43.18C13.9737 43.3584 14.4774 43.4655 14.6213 43.6796C14.7652 43.6796 14.5493 43.5726 14.7292 43.5726C15.053 43.6439 14.9811 43.7867 15.1969 43.858C15.2329 43.8224 15.1609 43.6796 15.3048 43.7153C15.4847 43.7867 15.8445 43.8224 15.7725 43.9294C15.7006 43.9294 15.3408 43.8581 15.4847 43.9294C15.8085 43.9651 16.0244 44.0722 16.2043 44.0008C16.4201 44.1079 16.1323 44.1435 16.3482 44.2149C16.4201 44.2149 16.3841 44.1079 16.4921 44.1079C16.564 44.1792 17.1396 44.4647 16.8878 44.2506C17.1396 44.322 17.1756 44.3577 17.4994 44.429C17.4994 44.3933 17.4994 44.322 17.5714 44.322C18.039 44.4647 18.5067 44.5361 18.9385 44.5718C19.3702 44.6075 19.8019 44.6788 20.2336 44.7502C20.2696 44.7145 20.1617 44.6788 20.2336 44.6431C20.5574 44.7145 20.8092 44.7502 21.0611 44.6431C21.0611 44.6788 21.0251 44.7145 20.9891 44.7145C21.2409 44.6788 21.5288 44.7502 21.7446 44.8216C21.5647 44.9286 21.2769 44.8216 21.205 45C21.6007 45 21.7806 44.7502 22.2483 44.8216C22.3202 44.7502 22.1044 44.7145 22.2483 44.7145C22.4282 44.7502 22.4641 44.7502 22.608 44.6788C22.608 44.7859 22.7879 44.7859 22.8959 44.8216C23.3635 44.6788 23.8312 44.8573 24.227 44.6431C24.4428 44.6431 24.7306 44.6431 24.9825 44.6431C25.2343 44.6075 25.5221 44.5718 25.8099 44.5361C26.3496 44.429 26.8533 44.322 27.213 44.1792C27.285 44.2506 27.5368 44.1435 27.5368 44.2506C27.8246 44.0722 28.0764 44.1792 28.2563 44.0008C28.1844 44.0008 28.1124 44.0365 28.1124 43.9651C28.2563 43.8937 28.2563 43.8937 28.5082 43.8224C28.5441 43.8581 28.5441 43.9294 28.6521 43.8937C28.76 43.6439 29.2996 43.7153 29.5515 43.6796C29.5515 43.6082 29.4435 43.6439 29.4076 43.6082C29.6234 43.5369 30.0192 43.3584 30.1271 43.5012C29.9832 43.5726 29.8753 43.4655 29.8393 43.5726C29.9112 43.5369 29.9112 43.6082 29.9832 43.6082C30.5228 43.2157 31.3503 42.9659 31.746 42.8588C31.8899 42.7875 31.9259 42.6804 31.9619 42.6447C32.1418 42.5734 32.3217 42.6447 32.5735 42.4663C32.5375 42.502 32.6454 42.4306 32.7893 42.3592C32.8253 42.3236 33.365 42.0024 33.5448 42.0381C33.6168 42.1094 33.1491 42.2879 33.329 42.2522C33.5089 42.1451 33.5448 42.0738 33.7607 42.0381C33.6888 41.9667 33.7607 41.931 33.8327 41.8596C33.9046 41.824 34.0125 41.7883 34.0845 41.7883C33.9406 41.931 33.7247 42.0381 33.6888 42.1808C34.0125 42.0024 34.4802 41.5028 34.5882 41.7526C34.5882 41.7169 34.6601 41.6812 34.6961 41.6812C34.5162 41.8596 34.6601 41.8596 34.5162 42.0381C34.768 41.7169 35.0918 41.5742 35.3796 41.4314C35.6675 41.253 35.9912 41.1102 36.1351 40.7534C36.1711 40.7891 36.1351 40.8604 36.1711 40.8961C36.315 40.7891 36.2431 40.7177 36.4589 40.6106C36.4949 40.6463 36.5669 40.6106 36.5669 40.682C36.6748 40.5749 36.8187 40.4679 36.8547 40.3965C36.6388 40.5749 36.5309 40.5749 36.423 40.5393C36.7827 40.3251 36.8187 40.111 37.2144 40.004C36.9986 40.111 37.1425 40.1824 36.9266 40.2894C37.0346 40.3251 37.0705 40.4322 37.2144 40.2894C37.1785 40.2538 37.1425 40.2181 37.1785 40.1467C37.2144 40.2895 37.898 39.8612 38.1498 39.6114C38.1138 39.4687 37.9699 39.6471 37.934 39.5401C38.0059 39.5044 38.1138 39.433 38.2218 39.3259C38.1858 39.4687 38.1858 39.433 38.2937 39.5044C38.4376 39.3973 38.2937 39.3616 38.4017 39.2902C38.4736 39.3973 38.6895 39.1118 38.7614 39.1475C38.8693 38.8977 39.0133 38.8977 39.0133 39.0048C39.1212 38.7906 39.1931 38.755 39.2651 38.5765C39.373 38.5408 39.3011 38.6122 39.337 38.6479C39.5169 38.4338 39.4809 38.4695 39.6608 38.3981C39.6968 38.3267 39.6968 38.2197 39.7328 38.1483C39.8407 38.1126 39.9127 37.9699 39.8407 38.184C40.3444 37.7557 40.2005 37.3632 40.4883 37.1491C40.3444 36.9707 40.5962 36.8279 40.8121 36.7209C40.8121 36.6138 40.6322 36.7565 40.7041 36.6495C40.848 36.5781 40.956 36.4711 41.0639 36.2569C41.1718 36.2926 41.0999 36.3997 41.0999 36.4354C41.1359 36.2926 41.3157 36.1856 41.2798 36.1499C41.2078 36.2213 41.1718 36.2213 41.0999 36.2213C41.1718 36.1142 41.1718 36.0428 41.2798 35.9358L41.3517 36.0071C41.5316 35.5075 42.0712 35.0436 42.0712 34.7938C42.1432 34.6154 42.2151 34.7224 42.2871 34.6511C42.2511 34.6154 42.2151 34.6511 42.1792 34.6511C42.2151 34.5083 42.7548 34.0444 42.431 34.2585C42.5749 34.0444 42.7188 34.0087 42.7548 33.8303C42.6828 33.9374 42.6109 33.9017 42.6828 33.7946C42.6828 33.9017 42.7548 33.866 42.8267 33.7232C42.8267 33.6519 42.8627 33.5448 42.8987 33.4378C42.8987 33.6162 43.0786 33.2236 43.1146 33.1523C43.0786 33.1879 43.0426 33.2593 43.0426 33.2236C43.0786 33.1166 43.1865 32.8311 43.2944 32.7597C43.3304 32.7954 43.1865 32.9738 43.2225 32.9738C43.3664 32.8311 43.3304 32.724 43.4024 32.5456C43.6182 32.5456 43.5463 31.9746 43.7621 32.0103C43.6182 32.1887 43.5822 32.4029 43.5463 32.5813C43.5103 32.7597 43.4743 32.9025 43.2944 32.9738C43.4383 33.0809 43.2585 33.188 43.1505 33.4378C43.2585 33.4378 43.1505 33.5448 43.1865 33.5805C43.3664 33.3664 43.2585 33.4021 43.2585 33.3307C43.3304 33.295 43.3664 33.1523 43.4383 33.2236C43.4024 33.295 43.3304 33.3664 43.3664 33.4021C43.4743 33.1879 43.5822 33.0809 43.6542 33.0809C43.6902 32.9381 43.7621 32.8311 43.8701 32.6527C43.942 32.5099 44.0499 32.2958 44.1938 32.0103C44.1938 31.9033 44.0859 32.046 44.1219 31.8676C44.5896 31.2252 44.6615 30.4758 44.9134 29.9405C44.8774 29.7978 44.6975 29.9762 44.8054 29.7264C44.9134 29.6194 44.9493 29.655 44.9853 29.7264C45.0573 29.1911 45.3451 28.9056 45.525 28.3347C45.3451 28.0492 45.7768 27.2998 45.6689 26.9072C45.6329 27.1927 45.5609 27.5139 45.417 27.6209C45.3811 27.3711 45.489 26.7288 45.6689 26.8358C45.6329 26.5147 45.9207 26.2649 45.7768 26.1221C45.9927 26.0864 46.1006 25.4441 46.1006 25.0515C46.1006 25.1229 46.1366 24.9802 46.1725 24.8374C46.2085 24.4449 46.2805 24.0167 46.3164 23.5884C46.3164 23.2673 46.3164 22.9104 46.3164 22.6249C46.3524 22.6249 46.3884 22.6249 46.4244 22.6249C46.3884 22.268 46.3884 21.9112 46.3524 21.5543C46.3524 21.5543 46.3524 21.5543 46.3884 21.5543C46.3524 21.3759 46.3524 21.3045 46.3164 21.1618C46.3164 21.0547 46.2805 20.912 46.2805 20.8049C46.3524 20.6622 46.3884 20.3767 46.3884 20.2339C46.3884 20.341 46.4604 20.3053 46.4604 20.4481C46.4244 20.6979 46.4244 21.019 46.5323 21.1975C46.4963 21.3045 46.4963 21.3045 46.4244 21.2688C46.4963 21.9469 46.3884 22.4822 46.5323 23.0888C46.4244 22.9461 46.4244 23.6598 46.5323 23.5171C46.4604 23.9096 46.3524 24.4092 46.3164 24.9088C46.2805 25.1586 46.2805 25.4084 46.2805 25.6582C46.2805 25.7653 46.2805 25.8723 46.2805 26.0151C46.2805 26.1221 46.2805 26.2292 46.2805 26.3006C46.3164 26.0151 46.4963 25.4798 46.4244 25.23C46.5323 25.3727 46.4963 24.9802 46.4244 24.9445H46.5323C46.964 24.1594 46.964 22.8033 47 21.483ZM38.3657 4.99603C38.4736 4.96035 38.5456 5.10309 38.5815 5.17446C38.5456 5.21015 38.4017 5.03172 38.3657 4.99603ZM13.1463 41.7169C13.1463 41.5741 13.3981 41.7883 13.4341 41.7526C13.578 41.8596 13.2902 41.8239 13.1463 41.7169ZM14.9091 42.7518C14.9811 42.609 15.089 42.7875 15.3048 42.8588C15.2329 42.8945 15.017 42.7518 14.9091 42.7518ZM15.3408 42.2879C15.3768 42.2165 15.5927 42.2879 15.6646 42.3592C15.6286 42.4306 15.4128 42.2879 15.3408 42.2879ZM19.1183 43.8224C19.1543 43.8224 19.2622 43.8224 19.3342 43.8224C19.3342 43.8581 19.2982 43.8937 19.3702 43.9294C19.3342 44.0008 19.0104 43.8937 19.1183 43.8224ZM20.8812 44.1435C20.8452 44.0722 20.9891 44.0722 20.9891 44.0365C20.5574 43.9294 20.0897 44.0008 19.9458 43.751C20.3415 43.8581 20.4854 43.7867 20.7732 43.7153C20.8452 43.751 20.8812 43.7867 20.9891 43.8224C20.9172 43.8937 20.8452 43.8581 20.7013 43.8224C20.7373 43.9294 20.8812 44.0008 21.133 44.0365C21.169 44.1792 21.0611 44.1792 20.8812 44.1435ZM44.6975 27.4068C44.7695 27.4068 44.6615 27.5853 44.6615 27.6923C44.6256 27.6566 44.6256 27.6209 44.6256 27.5853C44.6256 27.5139 44.6615 27.4782 44.6975 27.4068C44.6615 27.4425 44.6975 27.4068 44.6975 27.4068ZM44.1938 31.2966C44.0859 31.5107 44.1219 31.475 44.014 31.7248C43.942 31.7962 43.8341 31.6891 43.942 31.5107C44.014 31.7248 44.014 31.2609 44.1938 31.2966ZM29.4435 42.502C29.4435 42.5734 29.1557 42.609 29.0478 42.6804C29.0838 42.5377 29.2277 42.5734 29.4435 42.502ZM26.6014 43.7867C26.2776 43.8224 26.1337 43.7867 25.8099 43.751C25.9538 43.6082 26.2776 43.6796 26.6014 43.5726C26.6014 43.6439 26.5295 43.6796 26.6014 43.7867ZM24.9105 43.7867C24.8746 43.8937 24.7306 43.7867 24.6947 43.7867C24.6587 43.7153 24.8386 43.751 24.8386 43.6796C25.0185 43.6796 24.6947 43.8224 24.9105 43.7867ZM25.5581 43.751C25.5221 43.8224 25.3782 43.8581 25.3782 43.9294C25.3063 43.8581 24.9105 44.0008 24.8746 43.8937C25.0904 43.9651 25.2703 43.751 25.5581 43.751ZM25.1624 43.3228C24.9825 43.3584 24.8386 43.4298 24.5508 43.4655C24.4069 43.3228 24.6947 43.2514 24.9825 43.18C25.3063 43.1086 25.702 43.073 25.8459 43.0016C26.0977 43.0373 26.1337 43.1443 25.8459 43.2514C25.8459 43.2157 25.8819 43.2157 25.8819 43.18C25.5221 43.2514 25.3422 43.2871 25.1624 43.3228ZM24.6227 43.8224C24.227 43.9294 23.2916 43.9294 23.5075 43.7867C23.7953 43.8937 24.155 43.751 24.6227 43.8224ZM26.1337 43.1087C26.0977 43.0373 26.2417 43.0016 26.3136 43.0016C26.3136 43.073 26.2057 43.18 26.1337 43.1087ZM26.5295 42.2165C26.1697 42.2879 25.774 42.3236 25.4862 42.3592C25.3782 42.3949 25.5581 42.502 25.666 42.4663C25.6301 42.5734 25.4502 42.502 25.3422 42.502C25.3422 42.4663 25.3782 42.4306 25.3782 42.3592C25.3422 42.2879 25.1264 42.3949 25.0185 42.3949C25.3422 42.1808 25.702 42.1094 26.0977 42.0737C26.3136 42.0381 26.4935 42.0381 26.7453 42.0024C26.9612 41.9667 27.213 41.8953 27.4648 41.824C27.4648 41.8596 27.4648 41.8953 27.5368 41.8953C27.3929 41.9667 27.249 42.0381 27.0691 42.0737C26.9972 42.1094 26.8892 42.1094 26.8173 42.1451C26.7093 42.1808 26.6014 42.1808 26.5295 42.2165ZM14.2975 38.6122C14.3335 38.6122 14.3335 38.6122 14.3695 38.6122C14.3695 38.6122 14.3695 38.6122 14.3695 38.6479C14.2975 38.6479 14.2615 38.6122 14.2615 38.6122C14.2615 38.6122 14.2615 38.6122 14.2975 38.6122ZM11.3834 37.3989L11.3474 37.4346C11.3474 37.4346 11.3115 37.4346 11.3115 37.3989C11.3115 37.3989 11.3115 37.3632 11.3474 37.3632C11.3474 37.3632 11.3474 37.3275 11.3834 37.3275C11.3834 37.3632 11.3834 37.3989 11.3834 37.3989ZM20.5934 4.0682C20.5574 4.10389 20.4854 4.13957 20.4135 4.13957H20.3775C20.3415 4.13957 20.2696 4.13957 20.1976 4.13957C20.3415 4.0682 20.4495 4.03252 20.5934 4.0682ZM45.7048 16.023C45.7408 16.1657 45.7049 16.2014 45.6689 16.2728C45.6329 16.1301 45.5969 15.9516 45.5609 15.7732C45.5609 15.7375 45.5609 15.7018 45.5609 15.7018C45.6689 16.023 45.525 15.9873 45.7048 16.023ZM45.7768 16.2728C45.8128 16.3799 45.8128 16.4512 45.8128 16.5226C45.8128 16.5226 45.8128 16.5226 45.7768 16.5226C45.7408 16.4869 45.7408 16.4512 45.7048 16.4512C45.7048 16.3442 45.7048 16.2728 45.7768 16.2728ZM45.5609 23.8382C45.5609 23.7669 45.5609 23.6955 45.525 23.6955C45.525 23.5527 45.5609 23.4457 45.5969 23.3386C45.6329 23.3743 45.6329 23.41 45.6689 23.4457C45.6689 23.3743 45.6689 23.3029 45.6329 23.2316V23.1959V23.1602C45.6329 23.1245 45.6329 23.1245 45.6689 23.0888C45.6689 23.1959 45.7408 23.1959 45.7048 23.3743C45.489 23.6241 45.6329 23.517 45.5609 23.8382ZM26.6734 4.35369C26.6374 4.35369 26.6014 4.35369 26.6014 4.35369C26.6014 4.35369 26.6374 4.31801 26.6734 4.35369ZM41.3157 10.1348C41.2078 10.1348 41.1359 10.0991 41.1359 9.99207C41.2078 10.0278 41.2798 10.0634 41.3157 10.1348ZM45.525 22.0896C45.525 21.9826 45.525 21.9112 45.489 21.8041C45.489 21.8041 45.489 21.8041 45.489 21.7684C45.525 21.6971 45.5609 21.6257 45.6329 21.59C45.6329 21.6971 45.6329 21.7684 45.6329 21.8755C45.6329 22.0896 45.6689 22.268 45.6689 22.4822C45.6329 22.4822 45.5609 22.4822 45.5609 22.5892C45.5969 22.5892 45.6689 22.5535 45.6689 22.6606C45.6329 22.839 45.5969 22.9818 45.5609 23.0888C45.525 22.8033 45.525 22.4465 45.525 22.0896ZM45.6329 21.3045V21.3402V21.3045ZM42.6469 11.5266C42.5749 11.4552 42.5749 11.3481 42.6828 11.2768C42.6828 11.2768 42.6828 11.2768 42.7188 11.2768C42.8267 11.3838 42.8987 11.5266 43.0066 11.705C42.8267 11.7407 42.7548 11.6693 42.6469 11.5266ZM42.5389 11.134C42.431 11.0983 42.3591 11.027 42.3231 10.9199C42.395 10.9913 42.467 11.0627 42.5389 11.134ZM45.525 23.7312C45.525 23.8025 45.525 23.8739 45.525 23.9453C45.525 23.8739 45.525 23.8025 45.525 23.7312ZM46.2085 18.4853C46.2085 18.4496 46.2445 18.414 46.2805 18.3426C46.2805 18.4496 46.2805 18.521 46.2445 18.5567C46.2085 18.5567 46.2085 18.521 46.2085 18.4853ZM46.1366 17.95C46.1366 17.9144 46.1366 17.9144 46.1366 17.8787C46.1725 17.9144 46.1725 17.95 46.2085 17.9857C46.1725 17.9857 46.1725 17.95 46.1366 17.95ZM45.9567 17.3077C45.8847 17.4861 45.9927 17.6646 46.0286 17.6289C46.0286 17.7002 45.9927 17.7359 45.9927 17.7359C45.9567 17.7002 45.9567 17.6646 45.9207 17.6289C45.9207 17.5932 45.9207 17.5932 45.9207 17.5575C45.8847 17.5218 45.8488 17.4861 45.8128 17.4504C45.7768 17.4148 45.7768 17.3791 45.7768 17.3791C45.7408 17.3077 45.8128 17.2363 45.8847 17.2363C45.9207 17.3077 45.9207 17.3077 45.9567 17.3077ZM45.525 15.7018C45.525 15.6661 45.525 15.6661 45.525 15.7018C45.525 15.6661 45.525 15.6305 45.525 15.6305C45.525 15.6305 45.525 15.6661 45.525 15.7018ZM20.9531 4.13957C20.9172 4.13957 20.8812 4.13957 20.8452 4.10389C20.8812 4.10389 20.9172 4.10389 20.9531 4.13957ZM28.2563 42.5734C28.2923 42.7161 28.1124 42.609 27.9685 42.6804C28.0045 42.609 28.1124 42.609 28.2563 42.5734ZM40.0566 36.9707C40.1285 37.0777 39.9127 37.1491 39.7688 37.3275C39.7328 37.2918 39.6608 37.3275 39.6249 37.2918C39.7688 37.1848 39.9127 37.042 40.0566 36.9707ZM40.3444 36.6138C40.3804 36.6495 40.4163 36.6852 40.4523 36.6138C40.5243 36.6852 40.3084 36.8993 40.2005 36.935C40.1645 36.8636 40.2005 36.7565 40.3444 36.6138ZM44.7695 27.1213C44.8054 27.1213 44.8054 27.1213 44.7695 27.1213C44.7695 27.2284 44.7695 27.2284 44.7335 27.2284C44.7695 27.1927 44.7695 27.157 44.7695 27.1213ZM45.453 24.8731C45.453 24.8374 45.453 24.7661 45.453 24.7304C45.453 24.7304 45.489 24.6947 45.525 24.6947C45.489 24.7304 45.453 24.8017 45.453 24.8731ZM45.5609 24.4806C45.5609 24.4092 45.525 24.3021 45.525 24.2308C45.5609 24.1594 45.5609 24.088 45.5969 23.981C45.5969 24.2308 45.5609 24.3021 45.5609 24.4806ZM46.2805 19.5559C46.3164 19.4132 46.3164 19.2704 46.2805 19.092C46.4604 19.1634 46.3884 19.5559 46.2805 19.6987C46.3164 19.6273 46.2805 19.5916 46.2805 19.5559ZM46.2445 18.6994C46.2805 18.7708 46.3164 18.8779 46.3524 19.0206C46.2445 19.092 46.2085 18.7708 46.2445 18.6994ZM45.8128 15.8446L45.7048 15.8803C45.6689 15.7732 45.7408 15.6305 45.6329 15.5948C45.5969 15.4163 45.7049 15.6305 45.7408 15.6305C45.7408 15.5591 45.7049 15.5234 45.6689 15.452C45.7049 15.452 45.7049 15.4163 45.7408 15.3807C45.7768 15.5234 45.8128 15.6661 45.8128 15.8446ZM45.5609 14.8811C45.525 14.8811 45.489 14.774 45.489 14.7026C45.525 14.7026 45.525 14.6669 45.5609 14.6669C45.6329 14.8097 45.5609 14.8097 45.5609 14.8811ZM45.0933 14.3101H45.1292C45.2372 14.3814 45.3091 14.4528 45.3451 14.5956C45.3451 14.6669 45.417 14.6669 45.453 14.6669C45.453 14.7026 45.489 14.774 45.489 14.8097C45.453 14.8097 45.453 14.8811 45.453 14.8811C45.3811 14.6312 45.2372 14.7026 45.417 14.8454C45.417 14.881 45.417 14.9167 45.453 14.9524C45.3451 14.9524 45.2731 14.9524 45.1652 14.9524C45.1292 14.9524 45.0933 14.881 45.0933 14.8454C45.1292 14.774 45.2012 14.6669 45.1652 14.5956C45.1652 14.5242 45.0573 14.4528 45.0573 14.3458C45.0573 14.3458 45.0573 14.3458 45.0933 14.3101ZM44.0499 12.4187C44.014 12.4187 43.978 12.383 43.942 12.4187C43.906 12.383 43.906 12.3117 43.8701 12.276C43.8701 12.2403 43.8701 12.2046 43.8701 12.1689C43.906 12.2403 43.978 12.3473 44.0499 12.4187ZM40.1285 7.10151C40.1645 7.1372 40.1645 7.13719 40.2005 7.17288C40.2005 7.17288 40.2005 7.17288 40.2005 7.20857C40.0566 7.17288 40.0206 7.03014 39.9486 6.85171C39.9846 6.95877 40.0566 7.03014 40.1285 7.10151ZM38.0419 6.45916C38.0419 6.45916 38.0779 6.45916 38.0419 6.45916C38.0419 6.49485 38.0059 6.45916 38.0059 6.45916C38.0059 6.42348 38.0419 6.42348 38.0419 6.45916ZM19.7659 4.17526C19.7659 4.21095 19.7659 4.21095 19.7659 4.24663C19.8379 4.24663 19.8738 4.21095 19.8738 4.17526C19.9818 4.17526 20.0537 4.17526 20.1616 4.17526C20.1257 4.24663 20.0537 4.31801 19.9818 4.35369C19.8738 4.42506 19.8019 4.38938 19.7299 4.24663C19.694 4.24663 19.658 4.28232 19.622 4.28232C19.4421 4.38937 19.3702 4.38938 19.2622 4.24663C19.4421 4.21095 19.622 4.17526 19.7659 4.17526ZM18.3628 4.38937C18.5427 4.35369 18.6866 4.35369 18.8305 4.35369C18.7945 4.38938 18.7586 4.38937 18.6866 4.38937C18.6506 4.38937 18.5787 4.38938 18.5427 4.42506C18.3988 4.63918 18.111 4.46075 17.9311 4.60349C17.8232 4.71055 17.7512 4.63918 17.6793 4.5678C17.9311 4.49643 18.147 4.42506 18.3628 4.38937ZM6.41869 33.1166C6.38271 33.1166 6.38271 33.0452 6.38271 33.0095C6.38271 32.9738 6.38271 32.9738 6.41869 32.9738L6.45467 32.9381C6.49064 32.9738 6.49064 33.0095 6.49064 33.0452C6.49064 33.0809 6.49064 33.1523 6.41869 33.1166ZM7.06626 34.9009C7.06626 34.9366 7.03029 34.9722 6.99431 34.9722L6.95833 34.9366C6.95833 34.8652 6.95833 34.7938 6.95833 34.7581C6.92236 34.7581 6.88638 34.7224 6.85041 34.7224V34.6868C6.92236 34.6868 6.92236 34.7224 6.92236 34.7938C7.06626 34.7581 7.10224 34.7938 7.06626 34.9009ZM7.49798 35.2934C7.462 35.2577 7.42603 35.2577 7.39005 35.222C7.42603 35.1864 7.462 35.1507 7.49798 35.1507C7.53396 35.1507 7.56993 35.1864 7.60591 35.222C7.60591 35.2577 7.53396 35.2934 7.49798 35.2934ZM7.78579 35.6146C7.78579 35.6503 7.78579 35.7216 7.71384 35.7216V35.686C7.74981 35.6503 7.74981 35.6146 7.78579 35.6146C7.78579 35.6146 7.82177 35.6146 7.78579 35.6146C7.78579 35.5075 7.78579 35.4362 7.85774 35.3648C7.89372 35.3291 8.03763 35.3291 8.03763 35.3648C8.03763 35.4005 8.03763 35.4362 8.00165 35.4718C7.96567 35.5432 7.89372 35.6146 7.78579 35.6146C7.82177 35.6146 7.82177 35.6146 7.78579 35.6146C7.82177 35.6146 7.78579 35.6146 7.78579 35.6146ZM8.36141 35.7573C8.25348 35.9715 8.03763 36.1499 8.03763 36.4354C8.03763 36.4354 7.96567 36.4711 7.9297 36.4711C7.89372 36.4711 7.82177 36.3997 7.85774 36.3997C7.9297 36.1142 8.03763 35.9001 8.21751 35.6503C8.21751 35.6146 8.28946 35.6503 8.36141 35.6503L8.39739 35.686C8.36141 35.686 8.36141 35.7217 8.36141 35.7573ZM10.52 37.5059C10.484 37.5416 10.448 37.5773 10.4121 37.5773C10.4121 37.5416 10.448 37.5059 10.52 37.4703C10.6279 37.4346 10.6999 37.5416 10.6999 37.6487V37.6844C10.6639 37.6487 10.5919 37.5773 10.52 37.5059ZM11.4194 37.7558C11.4194 37.7201 11.4194 37.7201 11.4194 37.7558C11.4554 37.7201 11.4554 37.7201 11.4554 37.7558C11.4554 37.7201 11.4194 37.7558 11.4194 37.7558ZM16.2762 41.5028C15.8445 41.2887 15.3768 41.1102 14.8731 41.0032C14.6932 40.9318 14.5493 40.8247 14.3335 40.682C14.2975 40.682 14.2975 40.6463 14.2615 40.6463C14.3335 40.682 14.4414 40.682 14.5134 40.682C14.7292 40.7177 14.9091 40.7534 15.089 40.8247C15.2689 40.8604 15.4847 40.9318 15.7006 41.0389C16.0603 40.8604 16.564 41.5028 16.9238 41.4671C16.7799 41.253 17.3555 41.4314 17.7153 41.4671C17.6793 41.5742 17.7153 41.6812 17.7153 41.8596C17.2116 41.824 16.7439 41.6812 16.2762 41.5028ZM23.0038 42.609C23.1117 42.5377 23.1837 42.6804 23.3635 42.6447C23.3635 42.609 23.2916 42.609 23.2556 42.609C23.2556 42.5734 23.3995 42.5734 23.3995 42.5377C23.3276 42.4663 23.0757 42.5377 22.9318 42.5377C23.1477 42.3949 23.6873 42.3949 23.8312 42.2879C23.9032 42.3592 23.8672 42.4663 23.8312 42.4663C23.9032 42.5734 23.9392 42.4663 24.0471 42.502C24.191 42.4663 23.8672 42.4663 23.9392 42.3592C24.3349 42.3236 24.4428 42.3592 24.5867 42.2522C24.7666 42.2879 24.5867 42.2879 24.9105 42.2522C24.9825 42.4663 24.5867 42.3592 24.4788 42.4306C24.6587 42.5734 25.1264 42.2165 25.1624 42.4306C24.9825 42.4306 24.8386 42.4663 24.6587 42.502C24.4788 42.5377 24.2989 42.5377 24.119 42.5734C23.7593 42.6804 23.3635 42.7161 23.0038 42.609ZM23.1477 43.858C23.1117 43.9651 23.2556 43.8937 23.3635 43.8937C23.1837 43.9294 22.8959 43.9651 22.5721 43.9651C22.2483 43.9651 21.8885 43.9294 21.5647 43.9651C21.9245 43.751 22.5361 43.9651 23.1477 43.858ZM21.3848 44.0722C21.7086 44.1078 21.7806 44.1079 22.1044 44.1435C21.7806 44.0008 22.7879 44.0722 22.8959 44.1435C22.644 44.2149 22.3202 44.2149 22.0324 44.1792C21.7446 44.1792 21.4568 44.1435 21.2769 44.2149C21.205 44.1078 21.3489 44.1078 21.3848 44.0722ZM21.205 44.322C21.2409 44.2149 21.3848 44.2863 21.4928 44.322C21.4568 44.3933 21.2409 44.3577 21.205 44.322ZM24.9825 44.5004V44.3933C24.9465 44.3933 24.9465 44.3933 24.9105 44.429C24.8026 44.4647 24.6587 44.4647 24.5148 44.5004C24.263 44.5361 23.9751 44.5718 23.6873 44.5718C23.1117 44.6075 22.5361 44.6431 21.9605 44.5361C21.8885 44.5361 21.9245 44.6075 21.8525 44.6075C21.7086 44.6075 21.6007 44.5718 21.5288 44.5361C21.5288 44.429 21.8166 44.5004 21.9964 44.5004C21.9964 44.4647 21.9964 44.429 21.9245 44.3933C22.4641 44.3933 23.4715 44.3933 24.263 44.1792C24.4428 44.2149 24.6227 44.2149 24.7306 44.2863C24.8746 44.2506 24.6947 44.1792 24.6947 44.1435C24.8386 44.1079 24.9825 44.2506 25.0185 44.1435C25.1983 44.1435 25.0904 44.1792 25.0904 44.2506C25.3782 44.1792 25.5581 44.1078 25.738 44.0722C25.774 43.9651 25.5581 44.0365 25.4502 44.0722C25.5941 43.9294 25.9898 43.9294 26.1697 43.9651C26.2417 44.0722 25.9538 44.2149 26.2776 44.1792C26.0618 44.322 25.3782 44.2149 25.2703 44.3577C25.702 44.3577 26.4575 44.1435 26.7093 44.2863C26.1697 44.4647 25.6301 44.3577 24.9825 44.5004ZM27.5728 43.751C27.5728 43.6796 27.5008 43.7153 27.5008 43.6439C27.7167 43.5726 27.6807 43.6796 27.8966 43.6082C27.8246 43.6796 27.6447 43.7153 27.5728 43.751ZM29.0478 43.2157C28.3643 43.3228 27.8246 43.5012 27.1411 43.6082C27.177 43.6439 27.3209 43.5726 27.3569 43.6082C27.3569 43.7153 27.0331 43.751 27.0331 43.6439C26.8892 43.7153 26.8892 43.751 26.9612 43.858C26.7093 43.7867 26.6734 43.7153 26.7453 43.6439C26.8173 43.5726 27.0691 43.5369 27.3929 43.4655C27.3209 43.4298 27.213 43.4655 27.1051 43.4655C27.0691 43.3941 27.3569 43.3941 27.3569 43.3228C27.4289 43.3228 27.4289 43.3941 27.4289 43.4298C27.9325 43.2514 27.9685 43.2514 28.5441 43.073C28.6521 43.18 28.8319 43.0016 28.9399 43.073C29.0838 43.0016 28.76 43.0373 28.9039 42.9659C29.2996 42.8945 29.2637 42.9659 29.6594 42.7875C29.6234 42.7161 29.3356 42.9302 29.3716 42.7875C29.6234 42.7518 29.8033 42.6447 29.9832 42.5377C30.0192 42.609 30.0192 42.6447 29.9832 42.6804C30.1271 42.6447 30.1271 42.5734 30.0911 42.502C30.343 42.3592 30.4149 42.4306 30.5588 42.4663C30.3789 42.8232 29.3356 43.0016 29.0478 43.2157ZM34.0485 41.8953C34.0485 41.7526 34.2644 41.7169 34.4083 41.5741C34.4443 41.6812 34.1564 41.7883 34.0485 41.8953ZM35.6315 41.5385C35.5235 41.7526 35.5595 41.5028 35.3796 41.6098C35.3796 41.5742 35.4876 41.5028 35.5595 41.4671C35.5955 41.5028 35.5955 41.5385 35.6675 41.5028C35.7034 41.5385 35.6315 41.5741 35.6315 41.5385ZM35.4516 41.0745L35.6315 40.9675L35.6675 41.0389C35.5955 41.0745 35.4876 41.1816 35.4516 41.0745ZM35.6675 40.8961C35.6315 40.8247 35.7754 40.7177 35.9193 40.6463L35.9912 40.7177C35.8473 40.8247 35.7394 40.8961 35.6675 40.8961ZM35.5955 40.7534C35.3077 40.9675 34.9839 41.1459 34.84 41.2887C34.876 41.1816 35.1278 40.9675 35.4156 40.7534C35.7394 40.5393 36.0632 40.2894 36.2791 40.111C36.1711 40.2894 35.8833 40.5393 35.5955 40.7534ZM37.7181 40.3251C37.6102 40.2538 37.6102 40.2538 37.6102 40.111C37.7541 40.111 37.934 40.1467 37.7181 40.3251ZM37.898 40.0753C37.862 40.0753 37.7541 40.1467 37.7541 40.0753C37.826 40.0397 37.862 40.0397 37.862 40.004C37.898 39.9683 37.934 40.0396 38.0059 39.9683C38.0059 40.004 38.0059 40.0397 38.0059 40.0753C37.934 40.111 37.826 40.111 37.898 40.0753ZM38.7254 39.6471C38.7254 39.6114 38.8334 39.54 38.8693 39.4687C38.8334 39.433 38.7614 39.54 38.7254 39.5757C38.6535 39.5757 38.7974 39.3973 38.6535 39.5044C38.6535 39.433 38.9053 39.3973 38.9773 39.3973C38.8334 39.54 38.9053 39.54 38.7254 39.6471ZM39.7688 37.8628L39.8407 37.9342L39.6608 38.1483C39.5529 38.1126 39.7328 37.9699 39.7688 37.8628ZM40.0925 38.2554C40.1285 38.1126 40.0206 38.2197 39.9127 38.3624C39.8767 38.2197 40.1645 38.1126 40.3084 38.0056C40.3444 38.0056 40.1645 38.1483 40.0925 38.2554ZM40.2724 37.4703C40.2365 37.7201 40.1645 37.9699 39.7688 38.184C39.8047 38.0056 40.1645 37.7914 40.0566 37.5773C40.4163 37.2562 40.6322 36.935 40.848 36.7922C40.8121 37.042 40.4883 37.3632 40.2724 37.4703ZM41.3157 36.2926C41.0999 36.5067 40.992 36.5781 40.92 36.7922L40.8121 36.6852C41.0639 36.4711 41.2438 36.0785 41.4956 35.8287C41.4956 36.0071 41.2438 36.1142 41.3157 36.2926ZM43.6902 32.5456C43.5822 32.5456 43.6542 32.4029 43.5463 32.4029C43.6182 32.3315 43.7262 32.046 43.7981 32.1531C43.7262 32.046 43.942 31.7962 44.0499 31.6178C43.906 31.9746 43.8701 32.3315 43.6902 32.5456ZM43.7262 33.5805C43.6902 33.5448 43.6182 33.5805 43.5822 33.6519C43.5103 33.6162 43.5822 33.5091 43.6902 33.3664C43.6902 33.4734 43.7621 33.3664 43.7621 33.4734C43.8341 33.3664 43.906 33.1523 43.978 33.2593C43.906 33.2593 43.8341 33.4377 43.7262 33.5805ZM44.0499 32.9381C44.0499 32.7597 44.1219 32.724 44.2298 32.5813C44.2658 32.724 44.1579 32.7597 44.0499 32.9381ZM44.2658 30.797C44.2298 30.7256 44.2658 30.6542 44.3018 30.5115C44.4097 30.5115 44.3377 30.7256 44.2658 30.797ZM44.2298 29.9762C44.2298 29.8335 44.3018 29.7621 44.3737 29.548C44.4457 29.548 44.3018 29.9048 44.2298 29.9762ZM44.5176 28.7629C44.5896 28.8343 44.4457 28.977 44.4457 29.1554C44.3377 29.1554 44.5176 28.8699 44.5176 28.7629ZM44.5176 29.6907C44.4817 29.4766 44.5176 29.3695 44.5896 29.0484C44.6256 29.1554 44.5536 29.4409 44.6975 29.1554C44.7695 29.2625 44.5536 29.5123 44.5176 29.6907ZM44.9494 27.2284C44.8414 27.7994 44.8774 27.9778 44.8774 28.2633C44.8414 28.406 44.7695 28.299 44.7335 28.406C44.8774 28.3703 44.7695 28.7629 44.6975 29.0484C44.5896 29.0127 44.5536 29.0127 44.5536 28.9413C44.5896 28.9056 44.6615 28.6915 44.6256 28.6201C44.5176 28.7629 44.5896 28.4417 44.5176 28.406C44.5536 28.299 44.5896 28.299 44.6256 28.3703C44.6615 27.9421 44.8774 27.4782 44.9134 27.05C44.9493 27.05 44.9493 27.157 44.9853 27.0856C44.8414 27.157 45.0213 26.9072 44.9494 26.9072C44.9134 26.9786 44.8774 26.9429 44.8774 26.9072C44.9134 26.7645 44.9493 26.6574 44.9853 26.5147C45.0933 26.479 44.9134 26.7645 45.0213 26.7645C45.0573 26.5147 45.2731 26.1578 45.1652 26.0508C45.0933 26.3006 45.0933 26.4076 44.9853 26.5147C44.9853 26.5147 44.9853 26.5147 44.9853 26.479C45.0213 26.2649 45.0933 26.0508 45.0933 25.801C45.1292 25.801 45.1652 25.7653 45.2012 25.7653C45.2731 25.8723 45.2731 26.0508 45.2372 26.1935C45.2012 26.3362 45.1292 26.5147 45.1652 26.6574C45.0933 26.8002 45.0573 26.7645 45.0213 26.8002C45.0933 26.9072 44.9853 27.4425 44.9494 27.5496C44.8774 27.5139 45.0213 27.2641 44.9494 27.2284ZM44.9494 30.0476C45.0573 29.8692 44.9853 29.7621 45.0933 29.655C45.2372 29.6194 45.0573 30.1546 44.9494 30.0476ZM45.0933 29.5123C45.2372 29.4409 45.3091 29.1911 45.453 29.1911C45.3451 29.4052 45.2372 29.6194 45.0933 29.5123ZM46.4604 19.5916C46.4963 19.5202 46.4963 19.8414 46.5323 20.0555C46.3884 19.9841 46.4244 19.7343 46.4604 19.5916Z" fill="#D3B789"/>
</svg>
