<svg width="168" height="57" viewBox="0 0 168 57" fill="none" xmlns="http://www.w3.org/2000/svg">
<path d="M165.138 30.3661H167.219C165.946 30.7835 164.651 30.7835 163.378 30.3661C162.67 30.7539 161.926 30.7539 161.218 30.3661H159.778C159.778 30.3661 159.778 30.3661 159.298 30.3661H158.098H158.738C159.163 30.2488 159.593 30.2488 160.018 30.3661C160.498 30.3661 160.898 30.3661 160.898 31.5536C161.538 31.5536 162.258 31.5536 162.338 32.4018V33.25C162.818 33.25 163.298 33.25 163.538 33.25C163.778 33.25 164.338 34.4375 164.738 35.1161L165.938 35.9643C165.938 36.756 166.258 37.4345 166.899 38C167.299 38 167.779 38 167.939 38C168.099 38 167.939 38 167.539 38H166.018V39.0179C166.419 39.0179 166.739 39.0179 167.059 39.0179C167.379 39.0179 166.659 39.0179 166.338 39.0179C166.117 39.5824 165.802 39.9464 165.458 40.0357C165.458 40.0357 164.498 40.0357 164.818 41.5625C165.138 43.0893 165.378 41.5625 166.018 41.5625C165.789 42.0783 165.473 42.3827 165.138 42.4107C165.012 42.5227 164.876 42.5804 164.738 42.5804C164.601 42.5804 164.465 42.5227 164.338 42.4107H163.138H162.178H162.978C163.698 42.4107 162.978 42.4107 162.978 43.2589C163.427 43.3609 163.862 43.6491 164.258 44.1071C164.921 43.8761 165.596 43.8761 166.258 44.1071H164.258C164.258 44.1071 165.218 44.1072 165.378 44.9554C164.533 45.2991 163.664 45.2991 162.818 44.9554H160.018H158.178C158.178 44.9554 156.657 44.9554 157.217 46.1429C155.7 47.2336 154.097 47.6944 152.497 47.5H151.377C149.914 47.8418 148.439 47.8418 146.976 47.5C146.261 47.7531 145.531 47.7531 144.816 47.5C144.399 47.7742 143.953 47.7742 143.536 47.5C142.933 47.846 142.298 47.846 141.696 47.5H139.776C138.415 47.5 137.055 47.5 135.695 47.5H120.813H120.333C119.857 47.6677 119.37 47.6677 118.893 47.5H110.892H107.772H106.812C105.426 47.6697 104.037 47.6697 102.651 47.5C102.041 47.6688 101.422 47.6688 100.811 47.5C97.5308 47.5 94.2505 47.5 90.9701 47.5H87.7697H88.7299C88.3116 47.7545 87.868 47.7545 87.4497 47.5H85.6095C85.6095 47.5 84.8094 47.5 84.6494 47.5C83.2092 47.5 81.7691 47.5 80.3289 47.5H61.5268H56.3263H37.2041C36.4327 47.6679 35.6553 47.6679 34.8839 47.5H34.0038C32.5647 47.6694 31.1223 47.6694 29.6833 47.5C28.7783 47.6688 27.868 47.6688 26.963 47.5C26.4829 47.5 26.0029 47.5 25.9229 47.5C25.8429 47.5 25.4428 45.8036 24.8028 45.125C24.1627 44.4464 24.1627 43.5982 24.8028 42.9196L25.6829 41.3929C24.8982 41.4532 24.1215 41.0415 23.4426 40.2054C23.4426 40.2054 22.9626 40.2054 22.8825 40.2054C22.8825 40.2054 22.4025 40.2054 22.3225 40.2054C22.2425 40.2054 21.0423 40.2054 20.7223 40.2054H19.1221C18.5936 40.4207 18.0505 40.4207 17.5219 40.2054C18.0337 39.7636 18.5725 39.478 19.1221 39.3572L16.5968 38.3784C15.3409 38.2628 14.0565 37.4911 14.0565 37.4911C13.0963 37.4911 12.1614 34.4375 11.2012 34.0982C11.8413 34.0982 12.1614 34.0982 12.6414 34.0982L12.0013 42.9196C11.3264 42.7299 10.6747 42.2693 10.0811 41.5625C10.0811 41.5625 9.52106 41.5625 9.60107 40.5447C9.68108 39.5268 8.24091 39.0179 8.16091 37.8304H9.20102L8.56095 36.9821C8.56095 36.9821 8.56095 35.9643 8.56095 35.4554L7.76086 34.4375H6.72075C5.36059 34.4375 5.36059 33.4196 6.72075 32.5714C5.6122 32.5072 4.51112 32.1656 3.44038 31.5536C3.44038 31.5536 2.48028 30.7054 1.92021 30.3661L0.80009 29.5178H2.24025H0.320035C1.59261 29.1005 2.88789 29.1005 4.16046 29.5178C4.86893 29.13 5.61224 29.13 6.3207 29.5178H7.76086H8.16091C8.16091 29.5178 8.16091 29.5178 8.64096 29.5178L9.84109 28.6696H9.20102C8.7761 28.7869 8.3458 28.7869 7.92088 28.6696C7.44083 28.6696 7.04078 28.6697 7.04078 27.4822C6.40071 27.4822 5.68063 27.4822 5.60062 26.6339V25.7857C5.12057 25.7857 4.64051 25.7857 4.40049 25.7857L3.20036 24.0893L2.00022 23.2411C2.00022 22.4494 1.68019 21.7708 1.04012 21.2054C1.04012 21.2054 0.160018 21.2054 0 21.2054H1.52017V20.1875C1.52017 20.1875 0.800088 20.1875 0.480053 20.1875C0.160017 20.1875 0.480054 20.1875 1.20013 20.1875C1.42168 19.623 1.73644 19.259 2.08023 19.1697C2.08023 19.1697 3.04034 19.1697 2.7203 17.6429C2.40027 16.1161 2.16024 17.6429 1.52017 17.6429C1.25224 17.4424 1.00556 17.1319 0.794221 16.7293C0.582876 16.3267 0.411004 15.8397 0.288417 15.2962C0.16583 14.7528 0.0949296 14.1634 0.0797627 13.5619C0.0645959 12.9603 0.105461 12.3583 0.200023 11.7902C0.294585 11.2221 0.440992 10.6991 0.630888 10.251C0.820783 9.80285 1.05045 9.43841 1.30676 9.17849C1.56308 8.91857 1.84104 8.76827 2.12476 8.73611C2.40847 8.70395 2.6924 8.79058 2.96033 8.99108C3.08709 8.87909 3.22305 8.82143 3.36037 8.82143C3.4977 8.82143 3.63366 8.87909 3.76042 8.99108H4.96055H5.92066H5.12057C4.40049 8.99108 5.12057 8.99109 5.12057 8.14288C4.67174 8.04094 4.23677 7.75271 3.84043 7.29465C3.17814 7.52567 2.50249 7.52567 1.8402 7.29465H3.84043H4.24047C4.24047 7.29465 4.24047 7.29465 3.84043 7.29465C3.44038 7.29465 2.88032 7.29466 2.7203 6.44645C3.56603 6.10276 4.43486 6.10276 5.28059 6.44645H8.0809H9.9211C9.9211 6.44645 11.4413 6.44645 10.8812 5.25895C12.399 4.16818 14.0017 3.70741 15.6017 3.90181H16.7219C18.1843 3.56003 19.6599 3.56003 21.1223 3.90181C21.8375 3.64872 22.5675 3.64872 23.2826 3.90181C23.6995 3.62757 24.1458 3.62757 24.5627 3.90181C25.1653 3.55587 25.8004 3.55587 26.4029 3.90181H27.7631C29.1232 3.90181 30.4834 3.90181 31.8435 3.90181C32.4544 3.73305 33.0729 3.73305 33.6837 3.90181H44.805C45.4444 3.81691 46.0858 3.81691 46.7252 3.90181C47.202 3.73412 47.6886 3.73412 48.1654 3.90181C51.7658 3.90181 55.3662 3.90181 59.0466 3.90181H60.0067C61.3923 3.73215 62.7815 3.73215 64.1671 3.90181H66.3274C69.6077 3.90181 72.8881 3.90181 76.1685 3.90181H79.7689H78.8088C79.227 3.64728 79.6706 3.64728 80.0889 3.90181H81.9291C81.9291 3.90181 82.7292 3.90181 82.8892 3.90181C84.3803 3.64513 85.8787 3.64513 87.3697 3.90181H105.612H110.812H129.934C130.706 3.73392 131.483 3.73392 132.255 3.90181H133.135C134.574 3.73238 136.016 3.73238 137.455 3.90181C138.36 3.73301 139.271 3.73301 140.176 3.90181C140.656 3.90181 141.136 3.90181 141.216 3.90181C141.296 3.90181 141.696 5.59822 142.336 6.27679C142.976 6.95536 142.976 7.80357 142.336 8.48214L141.456 10.0089C142.24 9.94863 143.017 10.3603 143.696 11.1964C143.696 11.1964 144.176 11.1964 144.256 11.1964C144.256 11.1964 144.736 11.1964 144.816 11.1964C144.896 11.1964 146.096 11.1964 146.416 11.1964H147.936C148.465 10.9811 149.008 10.9811 149.537 11.1964C149.025 11.6382 148.486 11.9238 147.936 12.0447H147.376V14.4196H149.777C151.033 14.5352 152.273 15.0499 153.457 15.9464C154.417 15.9464 154.897 16.9643 155.857 17.3036C155.217 17.3036 154.897 17.3036 154.417 17.3036H155.057C155.732 17.4933 156.384 17.9539 156.977 18.6607C156.977 18.6607 157.538 18.6607 157.458 19.5089C157.377 20.3572 158.818 21.0357 158.898 22.2232H157.858L158.498 23.0714C158.498 23.0714 158.498 24.0893 158.498 24.5982H159.378H160.018C161.378 25.4464 161.378 25.6161 160.018 26.4643C161.126 26.5285 162.227 26.8702 163.298 27.4822C163.298 27.4822 164.258 27.4821 164.818 28.6696H165.938H164.498C164.498 28.6696 164.738 30.3661 165.138 30.3661ZM49.4455 53.9464C49.4455 53.9464 49.5255 54.1161 49.2855 54.1161L49.4455 53.9464ZM139.455 57C139.455 57 139.456 57 138.975 57H139.455ZM28.0031 2.54466C28.0031 2.54466 28.0031 2.54466 28.4832 2.54466H28.0831H28.0031ZM107.292 0H107.932C107.892 0.187149 107.838 0.359112 107.772 0.508938L107.292 0Z" fill="#D3B789"/>
</svg>
