<svg width="107" height="51" viewBox="0 0 107 51" fill="none" xmlns="http://www.w3.org/2000/svg">
<path d="M105.177 27.1696H106.502C105.692 27.5431 104.867 27.5431 104.056 27.1696C103.605 27.5167 103.132 27.5167 102.68 27.1696H101.763C101.763 27.1696 101.763 27.1696 101.457 27.1696H100.693H101.101C101.371 27.0648 101.645 27.0648 101.916 27.1696C102.222 27.1696 102.477 27.1696 102.477 28.2321C102.884 28.2321 103.343 28.2321 103.394 28.9911V29.75C103.7 29.75 104.005 29.75 104.158 29.75C104.311 29.75 104.668 30.8125 104.923 31.4197L105.687 32.1786C105.687 32.8869 105.891 33.494 106.298 34C106.553 34 106.859 34 106.961 34C107.063 34 106.961 34 106.706 34H105.738V34.9107C105.993 34.9107 106.197 34.9107 106.4 34.9107C106.604 34.9107 106.146 34.9107 105.942 34.9107C105.801 35.4158 105.6 35.7415 105.381 35.8214C105.381 35.8214 104.77 35.8214 104.974 37.1875C105.177 38.5536 105.33 37.1875 105.738 37.1875C105.592 37.649 105.39 37.9214 105.177 37.9464C105.097 38.0466 105.01 38.0982 104.923 38.0982C104.835 38.0982 104.749 38.0466 104.668 37.9464H103.903H103.292H103.802C104.26 37.9464 103.802 37.9464 103.802 38.7054C104.087 38.7966 104.364 39.0544 104.617 39.4643C105.039 39.2576 105.469 39.2576 105.891 39.4643H104.617C104.617 39.4643 105.228 39.4643 105.33 40.2232C104.792 40.5307 104.238 40.5307 103.7 40.2232H101.916H100.744C100.744 40.2232 99.7759 40.2232 100.133 41.2857C99.1659 42.2617 98.1451 42.6739 97.126 42.5H96.4126C95.4812 42.8058 94.5413 42.8058 93.6099 42.5C93.1544 42.7265 92.6895 42.7265 92.2341 42.5C91.9685 42.7454 91.6843 42.7454 91.4187 42.5C91.035 42.8095 90.6305 42.8095 90.2467 42.5H89.0237C88.1574 42.5 87.2911 42.5 86.4249 42.5H76.9466H76.6409C76.3372 42.65 76.0273 42.65 75.7236 42.5H70.6278H68.6405H68.029C67.1465 42.6518 66.2617 42.6518 65.3792 42.5C64.9901 42.651 64.5962 42.651 64.2071 42.5C62.1179 42.5 60.0286 42.5 57.9393 42.5H55.901H56.5125C56.2461 42.7277 55.9635 42.7277 55.6971 42.5H54.5251C54.5251 42.5 54.0155 42.5 53.9136 42.5C52.9964 42.5 52.0791 42.5 51.1619 42.5H39.1867H35.8745H23.6955C23.2042 42.6502 22.709 42.6502 22.2177 42.5H21.6572C20.7406 42.6516 19.822 42.6516 18.9054 42.5C18.329 42.651 17.7493 42.651 17.1729 42.5C16.8671 42.5 16.5614 42.5 16.5104 42.5C16.4594 42.5 16.2047 40.9821 15.797 40.375C15.3893 39.7678 15.3893 39.0089 15.797 38.4018L16.3575 37.0357C15.8578 37.0897 15.3631 36.7213 14.9307 35.9732C14.9307 35.9732 14.625 35.9732 14.574 35.9732C14.574 35.9732 14.2683 35.9732 14.2173 35.9732C14.1663 35.9732 13.402 35.9732 13.1981 35.9732H12.179C11.8423 36.1659 11.4965 36.1659 11.1598 35.9732C11.4858 35.5779 11.8289 35.3224 12.179 35.2143L10.5706 34.3386C9.77066 34.2352 8.95262 33.5446 8.95262 33.5446C8.34112 33.5446 7.74562 30.8125 7.13413 30.5089C7.54179 30.5089 7.74562 30.5089 8.05137 30.5089L7.64371 38.4018C7.21385 38.232 6.79879 37.8199 6.42071 37.1875C6.42071 37.1875 6.06401 37.1875 6.11496 36.2768C6.16592 35.3661 5.24868 34.9107 5.19772 33.8482H5.86018L5.45251 33.0893C5.45251 33.0893 5.45251 32.1786 5.45251 31.7232L4.94293 30.8125H4.28048C3.41419 30.8125 3.41419 29.9018 4.28048 29.1428C3.57444 29.0854 2.87315 28.7797 2.1912 28.2321C2.1912 28.2321 1.5797 27.4732 1.22299 27.1696L0.509581 26.4107H1.42683H0.203832C1.01434 26.0373 1.83931 26.0373 2.64982 26.4107C3.10104 26.0637 3.57446 26.0637 4.02569 26.4107H4.94293H5.19772C5.19772 26.4107 5.19772 26.4107 5.50347 26.4107L6.26784 25.6518H5.86018C5.58954 25.7567 5.31548 25.7567 5.04485 25.6518C4.7391 25.6518 4.48431 25.6518 4.48431 24.5893C4.07664 24.5893 3.61802 24.5893 3.56706 23.8304V23.0714C3.26132 23.0714 2.95557 23.0714 2.80269 23.0714L2.03832 21.5536L1.27395 20.7946C1.27395 20.0863 1.07012 19.4792 0.662455 18.9732C0.662455 18.9732 0.101916 18.9732 0 18.9732H0.968203V18.0625C0.968203 18.0625 0.50958 18.0625 0.305748 18.0625C0.101916 18.0625 0.305749 18.0625 0.764371 18.0625C0.905473 17.5574 1.10595 17.2317 1.32491 17.1518C1.32491 17.1518 1.93641 17.1518 1.73257 15.7857C1.52874 14.4197 1.37587 15.7857 0.968203 15.7857C0.797559 15.6063 0.640449 15.3286 0.505843 14.9683C0.371237 14.6081 0.261771 14.1724 0.183694 13.6861C0.105618 13.1998 0.0604611 12.6725 0.0508013 12.1343C0.0411414 11.5961 0.0671684 11.0574 0.127396 10.5491C0.187623 10.0408 0.28087 9.57285 0.401815 9.17191C0.52276 8.77097 0.669034 8.44489 0.832285 8.21233C0.995535 7.97977 1.17256 7.84529 1.35327 7.81652C1.53397 7.78774 1.7148 7.86525 1.88545 8.04465C1.96618 7.94445 2.05278 7.89286 2.14024 7.89286C2.2277 7.89286 2.31429 7.94445 2.39503 8.04465H3.1594H3.7709H3.26132C2.80269 8.04465 3.26132 8.04466 3.26132 7.28573C2.97546 7.19453 2.69842 6.93663 2.44599 6.52679C2.02417 6.73349 1.59385 6.73349 1.17204 6.52679H2.44599H2.70078C2.70078 6.52679 2.70078 6.52679 2.44599 6.52679C2.1912 6.52679 1.83449 6.5268 1.73257 5.76787C2.27122 5.46036 2.82458 5.46036 3.36323 5.76787H5.14676H6.3188C6.3188 5.76787 7.287 5.76788 6.93029 4.70538C7.897 3.72942 8.91776 3.31716 9.93682 3.49109H10.6502C11.5816 3.18529 12.5215 3.18529 13.4529 3.49109C13.9084 3.26464 14.3733 3.26464 14.8288 3.49109C15.0943 3.24572 15.3786 3.24572 15.6441 3.49109C16.0279 3.18157 16.4324 3.18157 16.8162 3.49109H17.6824C18.5487 3.49109 19.415 3.49109 20.2813 3.49109C20.6703 3.3401 21.0643 3.3401 21.4533 3.49109H28.5365C28.9438 3.41513 29.3522 3.41513 29.7595 3.49109C30.0632 3.34106 30.3731 3.34106 30.6767 3.49109C32.9699 3.49109 35.263 3.49109 37.607 3.49109H38.2185C39.1011 3.33929 39.9858 3.33929 40.8684 3.49109H42.2442C44.3335 3.49109 46.4228 3.49109 48.5121 3.49109H50.8052H50.1937C50.4601 3.26336 50.7426 3.26336 51.009 3.49109H52.181C52.181 3.49109 52.6906 3.49109 52.7925 3.49109C53.7422 3.26143 54.6965 3.26143 55.6462 3.49109H67.2646H70.5769H82.7559C83.2472 3.34087 83.7423 3.34087 84.2337 3.49109H84.7942C85.7107 3.3395 86.6294 3.3395 87.5459 3.49109C88.1223 3.34006 88.7021 3.34006 89.2785 3.49109C89.5842 3.49109 89.89 3.49109 89.941 3.49109C89.9919 3.49109 90.2467 5.00893 90.6544 5.61608C91.062 6.22322 91.062 6.98214 90.6544 7.58928L90.0938 8.95536C90.5936 8.90141 91.0882 9.26975 91.5207 10.0178C91.5207 10.0178 91.8264 10.0178 91.8774 10.0178C91.8774 10.0178 92.1831 10.0178 92.2341 10.0178C92.285 10.0178 93.0494 10.0178 93.2532 10.0178H94.2214C94.5581 9.82519 94.9039 9.82519 95.2406 10.0178C94.9146 10.4132 94.5715 10.6687 94.2214 10.7768H93.8647V12.9018H95.3935C96.1934 13.0052 96.9835 13.4657 97.7375 14.2679C98.349 14.2679 98.6548 15.1786 99.2663 15.4821C98.8586 15.4821 98.6548 15.4821 98.349 15.4821H98.7567C99.1866 15.6519 99.6016 16.064 99.9797 16.6964C99.9797 16.6964 100.336 16.6964 100.285 17.4554C100.234 18.2143 101.152 18.8214 101.203 19.8839H100.54L100.948 20.6429C100.948 20.6429 100.948 21.5536 100.948 22.0089H101.508H101.916C102.782 22.7679 102.782 22.9197 101.916 23.6786C102.622 23.7361 103.323 24.0417 104.005 24.5893C104.005 24.5893 104.617 24.5893 104.974 25.6518H105.687H104.77C104.77 25.6518 104.923 27.1696 105.177 27.1696ZM31.4921 48.2679C31.4921 48.2679 31.543 48.4196 31.3902 48.4196L31.4921 48.2679ZM88.8199 51C88.8199 51 88.8199 51 88.5141 51H88.8199ZM17.8353 2.2768C17.8353 2.2768 17.8353 2.2768 18.1411 2.2768H17.8863H17.8353ZM68.3347 0H68.7424C68.7171 0.16745 68.6826 0.321308 68.6405 0.455364L68.3347 0Z" fill="#D3B789"/>
</svg>
