<svg width="56" height="56" viewBox="0 0 56 56" fill="none" xmlns="http://www.w3.org/2000/svg">
<path d="M37.1336 35.1641V31.5C37.1341 30.0498 37.7105 28.6591 38.7359 27.6336C39.7614 26.6081 41.1521 26.0318 42.6023 26.0313H48.793V18.7031H8.70703C7.09194 18.7055 5.53325 18.1093 4.33203 17.0297V43.9141C4.33187 44.4886 4.44493 45.0576 4.66474 45.5885C4.88455 46.1194 5.2068 46.6017 5.61309 47.008C6.01937 47.4143 6.50173 47.7366 7.0326 47.9564C7.56348 48.1762 8.13245 48.2892 8.70703 48.2891H48.8586V40.6328H42.6133C41.1619 40.6328 39.7697 40.057 38.7424 39.0317C37.7151 38.0064 37.1365 36.6155 37.1336 35.1641ZM8.70703 16.5156H43.2477V9.35156C43.2479 9.13603 43.2057 8.92256 43.1234 8.72338C43.041 8.5242 42.9202 8.34323 42.7678 8.19082C42.6154 8.03842 42.4344 7.91758 42.2352 7.83524C42.036 7.75289 41.8226 7.71065 41.607 7.71094H8.70703C8.13245 7.71078 7.56348 7.82384 7.0326 8.04364C6.50173 8.26345 6.01937 8.58571 5.61309 8.99199C5.2068 9.39828 4.88455 9.88064 4.66474 10.4115C4.44493 10.9424 4.33187 11.5114 4.33203 12.0859V12.1406C4.33187 12.7152 4.44493 13.2842 4.66474 13.8151C4.88455 14.3459 5.2068 14.8283 5.61309 15.2346C6.01937 15.6409 6.50173 15.9631 7.0326 16.1829C7.56348 16.4027 8.13245 16.5158 8.70703 16.5156ZM9.80078 11.025H37.7789C38.069 11.025 38.3472 11.1402 38.5523 11.3454C38.7574 11.5505 38.8727 11.8287 38.8727 12.1188C38.8727 12.4088 38.7574 12.687 38.5523 12.8921C38.3472 13.0973 38.069 13.2125 37.7789 13.2125H9.80078C9.5107 13.2125 9.2325 13.0973 9.02738 12.8921C8.82227 12.687 8.70703 12.4088 8.70703 12.1188C8.70703 11.8287 8.82227 11.5505 9.02738 11.3454C9.2325 11.1402 9.5107 11.025 9.80078 11.025Z" fill="#7143FF"/>
<path d="M50.225 28.2188C50.0048 28.2917 49.767 28.2917 49.5469 28.2188H42.6016C41.7321 28.2213 40.899 28.5678 40.2842 29.1826C39.6694 29.7974 39.3229 30.6305 39.3203 31.5V35.175C39.3229 36.0445 39.6694 36.8776 40.2842 37.4924C40.899 38.1072 41.7321 38.4537 42.6016 38.4563H52.7625V28.2188H50.225ZM44.7891 35.1641C44.7891 35.4541 44.6738 35.7323 44.4687 35.9375C44.2636 36.1426 43.9854 36.2578 43.6953 36.2578C43.4052 36.2578 43.127 36.1426 42.9219 35.9375C42.7168 35.7323 42.6016 35.4541 42.6016 35.1641V31.5C42.6016 31.2099 42.7168 30.9317 42.9219 30.7266C43.127 30.5215 43.4052 30.4063 43.6953 30.4063C43.9854 30.4063 44.2636 30.5215 44.4687 30.7266C44.6738 30.9317 44.7891 31.2099 44.7891 31.5V35.1641Z" fill="#7143FF"/>
</svg>
