<svg width="48" height="48" viewBox="0 0 48 48" fill="none" xmlns="http://www.w3.org/2000/svg">
<g clip-path="url(#clip0_304_1277)">
<path d="M21.7502 0.0938454C18.094 0.450096 14.4565 1.6876 11.2502 3.67509C9.90962 4.5001 9.6565 4.74385 9.6565 5.24072C9.6565 5.55947 9.71275 5.7001 9.92837 5.91572C10.3596 6.34697 10.6502 6.29072 11.8034 5.55009C13.1346 4.6876 14.3627 4.04072 15.6096 3.53447C17.2221 2.87822 17.2034 2.86885 16.294 3.8251C15.8534 4.29385 15.3002 4.92197 15.0659 5.22197C13.9034 6.74072 12.6659 8.91572 11.9627 10.6876L11.6065 11.5876L11.0346 11.8032C10.0596 12.1688 7.87525 13.2657 6.98462 13.8282C5.80337 14.5688 4.88462 15.2907 3.85337 16.2657C2.869 17.2126 2.87837 17.222 3.53462 15.6095C4.04087 14.3626 4.68775 13.1345 5.55025 11.8032C6.29087 10.6501 6.34712 10.3595 5.91587 9.92822C5.70025 9.71259 5.55962 9.65635 5.24087 9.65635C4.744 9.65635 4.50025 9.90947 3.67525 11.2501C1.08775 15.422 -0.159129 20.0813 0.0377459 24.8907C0.272121 31.0688 2.69087 36.6095 7.04087 40.9595C12.6846 46.6032 20.5502 49.0313 28.4534 47.5782C38.0721 45.797 45.8065 38.072 47.569 28.4626C49.0315 20.5407 46.6034 12.6938 40.9596 7.04072C37.2284 3.30947 32.7096 1.05009 27.3752 0.23447C26.194 0.0563469 23.0065 -0.0186539 21.7502 0.0938454ZM25.819 2.36259C28.2284 2.9626 30.4221 4.73447 32.344 7.65009C32.9815 8.61572 34.0784 10.6688 34.0034 10.7438C33.9752 10.772 33.544 10.6876 33.0377 10.5563C30.1034 9.81572 27.5815 9.52509 24.0002 9.52509C20.419 9.52509 17.8971 9.81572 14.9627 10.5563C14.4565 10.6876 14.0252 10.772 13.9971 10.7438C13.9221 10.6688 15.019 8.61572 15.6565 7.65009C18.5159 3.30009 22.1065 1.43447 25.819 2.36259ZM31.8471 3.31884C36.3002 5.01572 40.294 8.3251 42.844 12.422C43.5471 13.547 45.0002 16.6595 45.0002 17.0251C45.0002 17.0626 44.6065 16.7063 44.1284 16.2563C43.1159 15.2907 42.1971 14.5688 41.0159 13.8282C40.1252 13.2657 37.9409 12.1688 36.9659 11.8032L36.394 11.5876L36.0377 10.6876C35.3346 8.91572 34.0971 6.74072 32.9346 5.22197C32.7002 4.92197 32.1565 4.30322 31.7159 3.83447C31.2752 3.3751 30.9377 3.0001 30.9659 3.0001C30.994 3.0001 31.3877 3.14072 31.8471 3.31884ZM27.7971 11.5313C29.8596 11.747 32.4377 12.2626 34.1721 12.8063L34.9409 13.0501L35.2409 14.0063C36.1971 17.1188 36.6002 20.1095 36.6002 24.0001C36.6002 27.8907 36.1971 30.8813 35.2409 33.9845L34.9502 34.9501L33.9846 35.2407C32.6346 35.6532 30.7596 36.0563 29.0627 36.2813C27.3659 36.5157 27.1315 36.5907 26.9534 36.947C26.7752 37.2751 26.7752 37.5376 26.9534 37.8657C27.1784 38.3063 27.5065 38.3813 28.6127 38.2501C29.8409 38.1095 31.8377 37.7438 33.0377 37.4438C33.544 37.322 33.9846 37.2282 34.0034 37.2563C34.0784 37.3313 32.9721 39.3938 32.344 40.3501C29.9346 44.0063 27.1315 45.8532 24.0002 45.8532C20.8784 45.8532 18.0565 43.997 15.6565 40.3501C15.019 39.3845 13.9221 37.3313 13.9971 37.2563C14.0252 37.2282 14.4565 37.3126 14.9627 37.4438C16.1534 37.7438 18.1596 38.1095 19.3877 38.2501C20.494 38.3813 20.8221 38.3063 21.0471 37.8657C21.2252 37.5376 21.2252 37.2751 21.0471 36.947C20.869 36.5907 20.6346 36.5157 18.9377 36.2813C17.2409 36.0563 15.3659 35.6532 14.0159 35.2407L13.0502 34.9501L12.7596 33.9845C11.1471 28.7251 10.9127 22.2001 12.1409 16.4063C12.3565 15.4032 12.9846 13.1438 13.0784 13.0501C13.0971 13.0313 13.669 12.8532 14.3627 12.6563C16.4815 12.047 18.8159 11.6345 21.2346 11.4376C22.4909 11.3345 26.5127 11.3907 27.7971 11.5313ZM10.7815 14.0251C10.7815 14.0532 10.6784 14.4845 10.5471 14.9813C9.81587 17.897 9.52525 20.4282 9.52525 24.0001C9.52525 27.5813 9.81587 30.1032 10.5565 33.0376C10.6877 33.5438 10.7721 33.9751 10.744 34.0032C10.7252 34.0313 10.2002 33.7876 9.57212 33.4688C5.47525 31.3782 2.85025 28.472 2.24087 25.3595C2.0815 24.5345 2.12837 22.997 2.344 22.172C3.1315 19.2095 5.569 16.6126 9.48775 14.5688C10.6221 13.9876 10.7815 13.9126 10.7815 14.0251ZM38.419 14.5313C42.3659 16.547 44.869 19.1907 45.6565 22.1813C45.8721 22.997 45.919 24.5345 45.7596 25.3595C45.2627 27.9001 43.4346 30.3001 40.4721 32.2782C39.544 32.897 37.3315 34.0876 37.2565 34.0032C37.2284 33.9751 37.3127 33.5438 37.444 33.0376C38.1846 30.1032 38.4752 27.5813 38.4752 24.0001C38.4752 20.4282 38.1846 17.897 37.4534 14.9813C37.2002 13.997 37.1909 13.9688 37.2752 13.9688C37.3034 13.9688 37.819 14.222 38.419 14.5313ZM5.52212 33.1688C7.02212 34.2845 8.61587 35.1845 10.5471 36.0001C11.0627 36.2157 11.5315 36.4407 11.5877 36.497C11.644 36.5626 11.8315 36.9657 12.0096 37.4063C12.9752 39.872 14.6065 42.422 16.3971 44.2688C16.7815 44.672 17.0721 45.0001 17.044 45.0001C16.8565 45.0001 15.1127 44.2688 14.1377 43.7813C9.2065 41.3157 5.27837 36.9845 3.319 31.847C3.14087 31.3876 3.00025 30.9938 3.00025 30.9657C3.00025 30.9376 3.394 31.2938 3.87212 31.7532C4.35962 32.222 5.09087 32.8595 5.52212 33.1688ZM44.6627 31.8845C42.6471 37.0782 38.794 41.3063 33.844 43.7907C32.9346 44.2501 31.144 45.0001 30.9565 45.0001C30.9284 45.0001 31.219 44.672 31.6034 44.2688C33.394 42.422 35.0159 39.8813 36.0002 37.4063C36.169 36.9657 36.3471 36.5626 36.394 36.497C36.4409 36.4407 36.8252 36.2532 37.2471 36.0845C39.9471 35.0157 42.8159 33.1501 44.569 31.322C44.7752 31.1157 44.9534 30.9563 44.9721 30.9751C44.9909 30.9938 44.8596 31.4063 44.6627 31.8845Z" fill="#313949"/>
<path d="M33.1038 18.5063C32.2882 18.9563 32.6351 20.25 33.5632 20.25C34.0413 20.25 34.5007 19.7906 34.5007 19.3219C34.5007 18.6188 33.7226 18.1594 33.1038 18.5063Z" fill="#313949"/>
<path d="M13.9784 20.3812C13.5377 20.625 13.3877 21.1687 13.6315 21.6469C13.8471 22.0594 14.119 22.125 15.7502 22.125H17.2502V23.0531V23.9906L15.7877 24.0187L14.3252 24.0469L14.1002 24.3094C13.9502 24.4875 13.8752 24.6844 13.8752 24.9375C13.8752 25.1906 13.9502 25.3875 14.1002 25.5656L14.3252 25.8281L15.7877 25.8562L17.2502 25.8844V26.8219V27.75H15.7502C14.119 27.75 13.8471 27.8156 13.6315 28.2281C13.4721 28.5469 13.4627 28.7906 13.6127 29.1094C13.819 29.5687 14.0815 29.625 15.9846 29.625C18.1784 29.625 18.5534 29.5031 18.9471 28.6406C19.1065 28.3031 19.1252 27.9656 19.1252 24.9562C19.1252 22.1906 19.0971 21.5906 18.9846 21.3094C18.7877 20.8406 18.5909 20.6344 18.1409 20.4281C17.8221 20.2781 17.5127 20.25 15.9846 20.2594C14.6815 20.2594 14.1471 20.2875 13.9784 20.3812Z" fill="#313949"/>
<path d="M21.2344 20.4281C20.7844 20.6344 20.5875 20.8406 20.3906 21.3094C20.2781 21.5906 20.25 22.1906 20.25 24.9562C20.25 27.9656 20.2688 28.3031 20.4281 28.6406C20.8031 29.4656 21.225 29.625 23.0625 29.625C24.9 29.625 25.3219 29.4656 25.6969 28.6406C25.9313 28.1344 25.9594 25.5938 25.7344 25.0594C25.3781 24.2062 24.9188 24.0094 23.325 24H22.125V23.0625V22.125H23.625C25.2563 22.125 25.5281 22.0594 25.7438 21.6469C25.9969 21.1594 25.8188 20.5687 25.3594 20.3625C25.2 20.2875 24.525 20.25 23.3625 20.25C21.8625 20.25 21.5531 20.2781 21.2344 20.4281ZM24 26.8125V27.75H23.0625H22.125V26.8125V25.875H23.0625H24V26.8125Z" fill="#313949"/>
<path d="M27.9844 20.4281C27.5344 20.6344 27.3375 20.8406 27.1406 21.3094C27.0281 21.5906 27 22.1906 27 24.9562C27 27.9656 27.0187 28.3031 27.1781 28.6406C27.5531 29.4656 27.975 29.625 29.8125 29.625C31.65 29.625 32.0719 29.4656 32.4469 28.6406C32.6062 28.3031 32.625 27.9656 32.625 24.9562C32.625 22.1906 32.5969 21.5906 32.4844 21.3094C32.1094 20.4187 31.6969 20.25 29.8125 20.25C28.6031 20.25 28.2937 20.2781 27.9844 20.4281ZM30.75 24.9375V27.75H29.8125H28.875V24.9375V22.125H29.8125H30.75V24.9375Z" fill="#313949"/>
<path d="M23.5413 36.7875C22.7257 37.2375 23.0726 38.5312 24.0007 38.5312C24.4788 38.5312 24.9382 38.0719 24.9382 37.6031C24.9382 36.9 24.1601 36.4406 23.5413 36.7875Z" fill="#313949"/>
<path d="M7.06852 7.06875C6.72165 7.41562 6.6654 7.725 6.88102 8.14687C7.02165 8.40937 7.3779 8.625 7.68727 8.625C8.1654 8.625 8.62477 8.16562 8.62477 7.69687C8.62477 7.37812 8.40915 7.02187 8.14665 6.88125C7.72477 6.66562 7.4154 6.72187 7.06852 7.06875Z" fill="#313949"/>
</g>
<defs>
<clipPath id="clip0_304_1277">
<rect width="48" height="48" fill="white"/>
</clipPath>
</defs>
</svg>
