<svg width="17" height="17" viewBox="0 0 17 17" fill="none" xmlns="http://www.w3.org/2000/svg">
<path fill-rule="evenodd" clip-rule="evenodd" d="M6.63958 5.66231H9.6572V7.16544C10.0919 6.30094 11.2066 5.52419 12.8812 5.52419C16.0914 5.52419 16.8535 7.24506 16.8535 10.4024V16.25H13.6035V11.1215C13.6035 9.32344 13.1688 8.30944 12.0622 8.30944C10.5274 8.30944 9.88958 9.40225 9.88958 11.1207V16.25H6.63958V5.66231ZM1.06664 16.1119H4.31664V5.52419H1.06664V16.1119ZM4.7822 2.07188C4.78232 2.34429 4.7283 2.614 4.62327 2.86535C4.51824 3.1167 4.3643 3.34467 4.17039 3.536C3.77747 3.92651 3.24561 4.14509 2.69164 4.14375C2.13864 4.14338 1.60802 3.92535 1.21452 3.53681C1.02131 3.34483 0.867892 3.11661 0.763045 2.86523C0.658198 2.61384 0.603986 2.34424 0.603516 2.07188C0.603516 1.52181 0.822891 0.995313 1.21533 0.606938C1.60848 0.217879 2.13934 -0.000243109 2.69245 2.0334e-07C3.24658 2.0334e-07 3.77795 0.218563 4.17039 0.606938C4.56202 0.995313 4.7822 1.52181 4.7822 2.07188Z" fill="white"/>
</svg>
