<svg width="17" height="17" viewBox="0 0 17 17" fill="none" xmlns="http://www.w3.org/2000/svg">
<path fill-rule="evenodd" clip-rule="evenodd" d="M5.19257 0.423341C6.03437 0.384588 6.30277 0.375977 8.4471 0.375977C10.5914 0.375977 10.8598 0.385306 11.7009 0.423341C12.542 0.461377 13.1161 0.595577 13.6185 0.790059C14.1445 0.988847 14.6217 1.29959 15.0164 1.70147C15.4183 2.09546 15.7283 2.57198 15.9264 3.09873C16.1216 3.60108 16.2551 4.1752 16.2938 5.01485C16.3326 5.85808 16.3412 6.12648 16.3412 8.27009C16.3412 10.4144 16.3319 10.6828 16.2938 11.5246C16.2558 12.3643 16.1216 12.9384 15.9264 13.4407C15.7283 13.9676 15.4178 14.4449 15.0164 14.8394C14.6217 15.2413 14.1445 15.5513 13.6185 15.7494C13.1161 15.9446 12.542 16.0781 11.7023 16.1168C10.8598 16.1556 10.5914 16.1642 8.4471 16.1642C6.30277 16.1642 6.03437 16.1549 5.19257 16.1168C4.35292 16.0788 3.7788 15.9446 3.27645 15.7494C2.74964 15.5513 2.27233 15.2408 1.87775 14.8394C1.47615 14.4452 1.16536 13.9681 0.967061 13.4415C0.772579 12.9391 0.639096 12.365 0.600343 11.5253C0.56159 10.6821 0.552979 10.4137 0.552979 8.27009C0.552979 6.12576 0.562308 5.85737 0.600343 5.01628C0.638379 4.1752 0.772579 3.60108 0.967061 3.09873C1.16565 2.57204 1.47668 2.09497 1.87847 1.70075C2.27249 1.29923 2.74932 0.988448 3.27573 0.790059C3.77808 0.595577 4.3522 0.462094 5.19185 0.423341H5.19257ZM11.637 1.84428C10.8046 1.80625 10.5548 1.79835 8.4471 1.79835C6.33937 1.79835 6.08963 1.80625 5.25715 1.84428C4.48712 1.87945 4.06945 2.00791 3.791 2.11627C3.42285 2.2598 3.15947 2.42988 2.88318 2.70618C2.62127 2.96098 2.41971 3.27117 2.29327 3.614C2.18491 3.89245 2.05645 4.31012 2.02128 5.08015C1.98325 5.91262 1.97536 6.16236 1.97536 8.27009C1.97536 10.3778 1.98325 10.6276 2.02128 11.46C2.05645 12.2301 2.18491 12.6477 2.29327 12.9262C2.41958 13.2685 2.62124 13.5792 2.88318 13.834C3.13794 14.096 3.44868 14.2976 3.791 14.4239C4.06945 14.5323 4.48712 14.6607 5.25715 14.6959C6.08963 14.7339 6.33865 14.7418 8.4471 14.7418C10.5555 14.7418 10.8046 14.7339 11.637 14.6959C12.4071 14.6607 12.8247 14.5323 13.1032 14.4239C13.4713 14.2804 13.7347 14.1103 14.011 13.834C14.273 13.5792 14.4746 13.2685 14.6009 12.9262C14.7093 12.6477 14.8377 12.2301 14.8729 11.46C14.9109 10.6276 14.9188 10.3778 14.9188 8.27009C14.9188 6.16236 14.9109 5.91262 14.8729 5.08015C14.8377 4.31012 14.7093 3.89245 14.6009 3.614C14.4574 3.24585 14.2873 2.98247 14.011 2.70618C13.7562 2.44429 13.446 2.24273 13.1032 2.11627C12.8247 2.00791 12.4071 1.87945 11.637 1.84428ZM7.4388 10.7036C8.00191 10.938 8.62893 10.9697 9.21277 10.7931C9.79662 10.6166 10.3011 10.2428 10.6399 9.7357C10.9788 9.22856 11.1311 8.6195 11.0708 8.01253C11.0106 7.40557 10.7414 6.83837 10.3094 6.4078C10.034 6.13257 9.70098 5.92182 9.33435 5.79073C8.96772 5.65964 8.57658 5.61147 8.1891 5.64969C7.80162 5.68791 7.42743 5.81156 7.09347 6.01175C6.75952 6.21194 6.4741 6.48369 6.25777 6.80742C6.04144 7.13116 5.89958 7.49883 5.84241 7.88397C5.78523 8.26911 5.81416 8.66214 5.92711 9.03476C6.04006 9.40738 6.23422 9.75032 6.49561 10.0389C6.75701 10.3275 7.07914 10.5545 7.4388 10.7036ZM5.57794 5.40094C5.95473 5.02416 6.40203 4.72528 6.89432 4.52137C7.38661 4.31745 7.91425 4.2125 8.4471 4.2125C8.97995 4.2125 9.50758 4.31745 9.99987 4.52137C10.4922 4.72528 10.9395 5.02416 11.3162 5.40094C11.693 5.77772 11.9919 6.22503 12.1958 6.71732C12.3997 7.20961 12.5047 7.73724 12.5047 8.27009C12.5047 8.80295 12.3997 9.33058 12.1958 9.82287C11.9919 10.3152 11.693 10.7625 11.3162 11.1392C10.5553 11.9002 9.52324 12.3277 8.4471 12.3277C7.37095 12.3277 6.33889 11.9002 5.57794 11.1392C4.817 10.3783 4.3895 9.34624 4.3895 8.27009C4.3895 7.19395 4.817 6.16189 5.57794 5.40094ZM13.4046 4.81678C13.498 4.7287 13.5727 4.62278 13.6244 4.5053C13.6761 4.38782 13.7037 4.26115 13.7056 4.13281C13.7075 4.00447 13.6836 3.87705 13.6353 3.75811C13.5871 3.63917 13.5154 3.53112 13.4247 3.44036C13.3339 3.3496 13.2259 3.27797 13.1069 3.22971C12.988 3.18146 12.8606 3.15756 12.7322 3.15943C12.6039 3.1613 12.4772 3.1889 12.3597 3.24061C12.2422 3.29231 12.1363 3.36705 12.0482 3.46042C11.877 3.64201 11.7832 3.8832 11.7868 4.13281C11.7905 4.38241 11.8912 4.62077 12.0677 4.79729C12.2443 4.9738 12.4826 5.07458 12.7322 5.07821C12.9818 5.08185 13.223 4.98807 13.4046 4.81678Z" fill="white"/>
</svg>
