<svg width="25" height="19" viewBox="0 0 25 19" fill="none" xmlns="http://www.w3.org/2000/svg">
<path d="M20.9205 1.51644C19.3908 0.814535 17.7505 0.297435 16.0354 0.00123539C16.0042 -0.00446461 15.973 0.00983537 15.9569 0.0384354C15.7459 0.413635 15.5122 0.903136 15.3486 1.28784C13.5039 1.01164 11.6687 1.01164 9.86182 1.28784C9.69812 0.894536 9.45602 0.413635 9.24412 0.0384354C9.22802 0.0107354 9.19682 -0.00346461 9.16552 0.00123539C7.45142 0.296435 5.81112 0.813635 4.28042 1.51644C4.26722 1.52214 4.25582 1.53164 4.24832 1.54404C1.13691 6.19244 0.284566 10.7265 0.702696 15.2044C0.704586 15.2263 0.716885 15.2472 0.733915 15.2605C2.78672 16.7681 4.77522 17.6833 6.72682 18.2899C6.75802 18.2994 6.79112 18.288 6.81102 18.2623C7.27262 17.6319 7.68412 16.9671 8.03702 16.2681C8.05782 16.2272 8.03792 16.1786 7.99542 16.1624C7.34262 15.9148 6.72112 15.6129 6.12322 15.2701C6.07592 15.2425 6.07222 15.1748 6.11572 15.1424C6.24152 15.0482 6.36732 14.9501 6.48752 14.851C6.50922 14.8329 6.53952 14.8291 6.56502 14.8405C10.4928 16.6338 14.745 16.6338 18.6265 14.8405C18.652 14.8282 18.6823 14.832 18.705 14.8501C18.8251 14.9491 18.951 15.0482 19.0777 15.1424C19.1212 15.1748 19.1184 15.2425 19.0711 15.2701C18.4732 15.6196 17.8517 15.9148 17.198 16.1615C17.1555 16.1776 17.1365 16.2272 17.1573 16.2681C17.5178 16.9662 17.9293 17.6309 18.3824 18.2614C18.4013 18.288 18.4354 18.2994 18.4666 18.2899C20.4276 17.6833 22.4161 16.7681 24.4689 15.2605C24.4869 15.2472 24.4983 15.2272 24.5002 15.2053C25.0006 10.0284 23.662 5.53144 20.9517 1.54494C20.9451 1.53164 20.9338 1.52214 20.9205 1.51644ZM8.62352 12.4778C7.44102 12.4778 6.46662 11.3921 6.46662 10.0589C6.46662 8.72564 7.42212 7.63994 8.62352 7.63994C9.83442 7.63994 10.7993 8.73514 10.7804 10.0589C10.7804 11.3921 9.82492 12.4778 8.62352 12.4778ZM16.5982 12.4778C15.4158 12.4778 14.4414 11.3921 14.4414 10.0589C14.4414 8.72564 15.3968 7.63994 16.5982 7.63994C17.8091 7.63994 18.774 8.73514 18.7551 10.0589C18.7551 11.3921 17.8091 12.4778 16.5982 12.4778Z" fill="white"/>
</svg>
