<svg width="51" height="48" viewBox="0 0 51 48" fill="none" xmlns="http://www.w3.org/2000/svg">
<path d="M14.9922 41.9512H16.2363V48H14.9922V45.3087H10.2708V48H9.02148V41.9512H10.2708V44.3041H14.9922V41.9512Z" fill="white"/>
<path d="M50.0982 45.3086H43.9766V44.304H50.0982V45.3086Z" fill="white"/>
<path d="M7.44909 45.7772V46.506C7.44909 47.1879 7.11593 48 5.52825 48H0V47.0005H5.52825C6.13209 47.0005 6.20497 46.7246 6.20497 46.5164V45.7668C6.20497 45.5586 6.13209 45.2827 5.52825 45.2827H1.92083C0.333154 45.2827 0 44.4706 0 43.7887V43.4452C0 42.7632 0.333154 41.9512 1.92083 41.9512H7.12114V42.9506H1.92083C1.317 42.9506 1.24412 43.2265 1.24412 43.4347V43.7991C1.24412 44.0021 1.317 44.278 1.92083 44.278H5.52825C7.11593 44.278 7.44909 45.0953 7.44909 45.7772Z" fill="white"/>
<path d="M50.0982 41.9512V42.9506H43.9766V41.9512H50.0982Z" fill="white"/>
<path d="M43.9766 47.0005H50.0982V47.9999H43.9766V47.0005Z" fill="white"/>
<path d="M42.5396 43.4452V44.3197C42.5396 45.0016 42.2064 45.8137 40.6135 45.8137H36.9437V48H35.6943V44.809H40.6135C41.2226 44.809 41.2903 44.5331 41.2903 44.3249V43.4347C41.2903 43.2265 41.2226 42.9506 40.6135 42.9506H35.6943V41.9512H40.6135C42.2064 41.9512 42.5396 42.7632 42.5396 43.4452Z" fill="white"/>
<path fill-rule="evenodd" clip-rule="evenodd" d="M25.7048 43.4452V46.506C25.7048 47.1879 25.3716 48 23.7839 48H19.8694C18.2765 48 17.9434 47.1879 17.9434 46.506V43.4452C17.9434 42.7632 18.2765 41.9512 19.8694 41.9512H23.7839C25.3716 41.9512 25.7048 42.7632 25.7048 43.4452ZM19.1927 46.5164C19.1927 46.7246 19.2604 47.0005 19.8694 47.0005H23.7839C24.3878 47.0005 24.4607 46.7246 24.4607 46.5164V43.4347C24.4607 43.2265 24.3878 42.9506 23.7839 42.9506H19.8694C19.2604 42.9506 19.1927 43.2265 19.1927 43.4347V46.5164Z" fill="white"/>
<path d="M34.2574 43.4452V44.3197C34.2574 45.0016 33.9242 45.8137 32.3313 45.8137H28.6614V48H27.4121V44.809H32.3313C32.9404 44.809 33.008 44.5331 33.008 44.3249V43.4347C33.008 43.2265 32.9404 42.9506 32.3313 42.9506H27.4121V41.9512H32.3313C33.9242 41.9512 34.2574 42.7632 34.2574 43.4452Z" fill="white"/>
<path d="M0 39.3797V24.1379H3.04522V27.1884H6.21018V30.2336H3.04522V39.3797H0ZM6.21018 33.284V30.2336H9.2606V33.284H6.21018ZM12.3058 39.3797V36.3345H9.2606V33.284H12.3058V24.1379H15.3563V39.3797H12.3058ZM19.0105 39.3797V27.1884H22.0557V30.2336H28.1566V33.284H22.0557V39.3797H19.0105ZM22.0557 27.1884V24.1379H31.2018V27.1884H22.0557ZM34.8561 30.2336V27.1884H37.9013V30.2336H34.8561ZM40.9517 39.3797V27.1884H37.9013V24.1379H50.0978V27.1884H44.0022V39.3797H40.9517Z" fill="#D3B789"/>
<path d="M15.0127 0H21.2333V0.858909H18.693V5.11181H17.6259V0.858909H15.0127V0Z" fill="white"/>
<path d="M27.4276 0H28.4895V5.11181H27.4276V2.84221H23.4662V5.11181H22.4043V0H23.4662V1.9833H27.4276V0Z" fill="white"/>
<path d="M35.1996 0V0.858909H29.9473V0H35.1996Z" fill="white"/>
<path d="M34.9862 2.84232H29.9473V1.99902H34.9862V2.84232Z" fill="white"/>
<path d="M29.9473 4.24243L35.1996 4.25284V5.11175H29.9473V4.24243Z" fill="white"/>
<path d="M7.29297 19.1511H13.8467C13.8467 20.8585 12.3788 22.2432 10.5724 22.2432C8.76092 22.2432 7.29297 20.8585 7.29297 19.1511Z" fill="white"/>
<path d="M21.8164 19.1511H28.3649C28.3649 20.8585 26.9022 22.2432 25.0907 22.2432C23.2844 22.2432 21.8164 20.8585 21.8164 19.1511Z" fill="white"/>
<path d="M14.5859 19.1511H21.1345C21.1345 20.8585 19.6665 22.2432 17.8602 22.2432C16.0539 22.2432 14.5859 20.8585 14.5859 19.1511ZM14.612 18.6305L18.5838 7.69897H22.5139L21.1605 18.6305H14.612Z" fill="#D3B789"/>
<path fill-rule="evenodd" clip-rule="evenodd" d="M0.0673828 19.1511H6.61592C6.61592 20.8585 5.14796 22.2432 3.34165 22.2432C1.53534 22.2432 0.0673828 20.8585 0.0673828 19.1511ZM9.00524 7.69897L0.155874 18.6305H6.64715L13.2113 7.69897H9.00524Z" fill="#D3B789"/>
<path d="M23.1959 7.69897H26.8606L28.3025 18.6305H21.8477L23.1959 7.69897Z" fill="white"/>
<path d="M13.8988 7.69897H17.8446L13.9509 18.6305H7.44922L13.8988 7.69897Z" fill="white"/>
<path d="M39.6454 22.2432C37.8338 22.2432 36.3711 20.8585 36.3711 19.1511H42.9196C42.9196 20.8585 41.4517 22.2432 39.6454 22.2432Z" fill="white"/>
<path d="M32.3522 22.2432C30.5459 22.2432 29.0779 20.8585 29.0779 19.1511H35.6265C35.6265 20.8585 34.1637 22.2432 32.3522 22.2432ZM28.9686 18.6305L27.5371 7.69897H31.4673L35.5172 18.6305H28.9686Z" fill="#D3B789"/>
<path d="M46.8699 22.2432C45.0636 22.2432 43.5956 20.8585 43.5956 19.1511H50.1442C50.1442 20.8585 48.6814 22.2432 46.8699 22.2432ZM41.0449 7.69897L49.9724 18.6305H43.5644L36.8389 7.69897H41.0449Z" fill="#D3B789"/>
<path d="M42.7993 18.6305H36.2612L32.2061 7.69897H36.1518L42.7993 18.6305Z" fill="white"/>
</svg>
