<svg width="94" height="62" viewBox="0 0 94 62" fill="none" xmlns="http://www.w3.org/2000/svg">
<path d="M36.9502 14.752H57.0577V47.244H36.9502V14.752Z" fill="#FF5F00"/>
<path d="M39.0218 31.0016C39.0193 27.8729 39.7362 24.7846 41.1182 21.9705C42.5002 19.1564 44.5111 16.6902 46.9987 14.7585C43.9176 12.3629 40.2176 10.8732 36.3213 10.4597C32.425 10.0462 28.4898 10.7255 24.9653 12.4201C21.4408 14.1146 18.4693 16.756 16.3904 20.0424C14.3114 23.3287 13.209 27.1275 13.209 31.0044C13.209 34.8813 14.3114 38.6801 16.3904 41.9664C18.4693 45.2528 21.4408 47.8942 24.9653 49.5887C28.4898 51.2833 32.425 51.9626 36.3213 51.5491C40.2176 51.1356 43.9176 49.6459 46.9987 47.2504C44.5103 45.318 42.4989 42.8509 41.1169 40.0357C39.7349 37.2205 39.0184 34.1311 39.0218 31.0015V31.0016Z" fill="#EB001B"/>
<path d="M78.7957 43.8064V43.1407H79.0858V43.0029H78.3955V43.1407H78.6682V43.8065L78.7957 43.8064ZM80.1359 43.8064V43.003H79.927L79.6834 43.5769L79.4397 43.0029H79.2309V43.8064H79.3817V43.1981L79.608 43.7205H79.7646L79.9909 43.1981V43.8064H80.1359Z" fill="#F79E1B"/>
<path d="M80.7909 31.001C80.7908 34.8782 79.6881 38.6772 77.6088 41.9636C75.5295 45.2501 72.5575 47.8915 69.0325 49.5858C65.5076 51.2801 61.572 51.959 57.6755 51.5449C53.779 51.1308 50.0788 49.6404 46.998 47.244C49.4847 45.3106 51.495 42.8437 52.8773 40.0294C54.2597 37.2151 54.9779 34.127 54.9779 30.998C54.9779 27.8691 54.2597 24.781 52.8773 21.9667C51.495 19.1524 49.4847 16.6855 46.998 14.7521C50.0788 12.3557 53.779 10.8653 57.6755 10.4512C61.572 10.0371 65.5077 10.716 69.0326 12.4103C72.5575 14.1047 75.5295 16.746 77.6088 20.0325C79.6881 23.319 80.7908 27.118 80.7909 30.9952V31.001Z" fill="#F79E1B"/>
</svg>
