<svg width="112" height="28" viewBox="0 0 112 28" fill="none" xmlns="http://www.w3.org/2000/svg">
<g clip-path="url(#clip0_506_795)">
<path fill-rule="evenodd" clip-rule="evenodd" d="M42.9071 12.3357C42.5716 14.5946 40.8884 14.5946 39.2607 14.5946H38.3344L38.984 10.3771C39.0234 10.1223 39.2378 9.93446 39.4895 9.93446H39.9141C41.0223 9.93446 42.0691 9.93446 42.6086 10.5816C42.9317 10.9688 43.0294 11.5426 42.9071 12.3357ZM42.1988 6.44238H36.0591C35.6394 6.44238 35.2821 6.75547 35.2167 7.18056L32.7339 23.3168C32.685 23.635 32.9251 23.9229 33.2394 23.9229H36.1709C36.5905 23.9229 36.9481 23.6098 37.0135 23.185L37.6835 18.8317C37.7486 18.4066 38.1062 18.0935 38.5259 18.0935H40.4687C44.5125 18.0935 46.8466 16.0874 47.4567 12.1117C47.7312 10.3728 47.4677 9.00651 46.6733 8.04998C45.8 6.99842 44.2526 6.44238 42.1988 6.44238Z" fill="white"/>
<path fill-rule="evenodd" clip-rule="evenodd" d="M56.4516 18.1272C56.1677 19.8491 54.8341 21.005 53.1333 21.005C52.2806 21.005 51.598 20.7239 51.1593 20.1916C50.7244 19.6638 50.5608 18.9121 50.6985 18.0749C50.9633 16.3686 52.3182 15.1753 53.9931 15.1753C54.828 15.1753 55.5057 15.4593 55.9533 15.9964C56.4036 16.5374 56.5805 17.2943 56.4516 18.1272ZM60.5486 12.2622H57.6088C57.3569 12.2622 57.1425 12.4497 57.1033 12.7051L56.9739 13.5476L56.7684 13.2422C56.1318 12.295 54.713 11.9785 53.2961 11.9785C50.0481 11.9785 47.2736 14.5013 46.7336 18.0398C46.4524 19.8049 46.8514 21.4917 47.828 22.6691C48.725 23.751 50.0053 24.2012 51.5307 24.2012C54.1487 24.2012 55.6006 22.4774 55.6006 22.4774L55.4693 23.3148C55.4202 23.6333 55.6602 23.9215 55.9748 23.9215H58.6223C59.042 23.9215 59.3994 23.6087 59.4648 23.1836L61.0541 12.8683C61.1032 12.5498 60.8632 12.2622 60.5486 12.2622Z" fill="white"/>
<path fill-rule="evenodd" clip-rule="evenodd" d="M76.2069 12.2637H73.252C72.9694 12.2637 72.7051 12.4073 72.5464 12.6469L68.4704 18.8004L66.7428 12.8873C66.6349 12.5174 66.3027 12.2637 65.9258 12.2637H63.0211C62.6704 12.2637 62.4234 12.6172 62.5365 12.9574L65.7903 22.7467L62.73 27.173C62.4896 27.5203 62.7322 28.0008 63.1474 28.0008H66.0996C66.3794 28.0008 66.6413 27.8602 66.8008 27.6244L76.6277 13.0873C76.8628 12.7394 76.62 12.2637 76.2069 12.2637Z" fill="white"/>
<path fill-rule="evenodd" clip-rule="evenodd" d="M86.6963 12.3347C86.3607 14.5937 84.6776 14.5937 83.0496 14.5937H82.1233L82.7731 10.3761C82.8123 10.1213 83.0267 9.93349 83.2786 9.93349H83.7033C84.8111 9.93349 85.858 9.93349 86.3977 10.5806C86.7206 10.9678 86.8182 11.5417 86.6963 12.3347ZM85.9877 6.44141H79.848C79.4283 6.44141 79.0709 6.7545 79.0055 7.17959L76.523 23.3158C76.4739 23.634 76.7139 23.9219 77.0285 23.9219H80.1785C80.4724 23.9219 80.7227 23.7027 80.7682 23.4052L81.4724 18.8307C81.5378 18.4056 81.8951 18.0925 82.3148 18.0925H84.2576C88.3016 18.0925 90.6354 16.0864 91.2455 12.1107C91.5201 10.3719 91.2566 9.00553 90.4622 8.049C89.5891 6.99745 88.0417 6.44141 85.9877 6.44141Z" fill="#2790C3"/>
<path fill-rule="evenodd" clip-rule="evenodd" d="M100.241 18.1272C99.9566 19.8491 98.6233 21.005 96.9225 21.005C96.0696 21.005 95.3872 20.7239 94.9482 20.1916C94.5133 19.6638 94.3497 18.9121 94.4876 18.0749C94.7523 16.3686 96.1071 15.1753 97.7823 15.1753C98.6169 15.1753 99.2949 15.4593 99.7422 15.9964C100.192 16.5374 100.369 17.2943 100.241 18.1272ZM104.338 12.2622H101.398C101.146 12.2622 100.931 12.4497 100.892 12.7051L100.763 13.5476L100.558 13.2422C99.9207 12.295 98.5019 11.9785 97.085 11.9785C93.8373 11.9785 91.0625 14.5013 90.5225 18.0398C90.2416 19.8049 90.6406 21.4917 91.6169 22.6691C92.5142 23.751 93.7942 24.2012 95.3196 24.2012C97.9376 24.2012 99.3895 22.4774 99.3895 22.4774L99.2585 23.3148C99.2091 23.6333 99.4491 23.9215 99.764 23.9215H102.411C102.831 23.9215 103.188 23.6087 103.254 23.1836L104.843 12.8683C104.892 12.5498 104.652 12.2622 104.338 12.2622Z" fill="#2790C3"/>
<path fill-rule="evenodd" clip-rule="evenodd" d="M107.802 6.8846L105.283 23.3158C105.234 23.6343 105.474 23.9219 105.788 23.9219H108.323C108.742 23.9219 109.1 23.6088 109.165 23.184L111.65 7.04779C111.699 6.72933 111.459 6.44141 111.144 6.44141H108.308C108.056 6.44141 107.842 6.62949 107.802 6.8846Z" fill="#2790C3"/>
<mask id="mask0_506_795" style="mask-type:alpha" maskUnits="userSpaceOnUse" x="0" y="0" width="112" height="28">
<path d="M0.0166016 28.0002H111.656V0.232422H0.0166016V28.0002Z" fill="white"/>
</mask>
<g mask="url(#mask0_506_795)">
<path fill-rule="evenodd" clip-rule="evenodd" d="M11.631 26.8559L12.4563 21.4918L12.5096 21.1945C12.5493 20.936 12.6784 20.6996 12.873 20.5293C13.0675 20.359 13.3156 20.2651 13.5714 20.2651H14.2267C15.3191 20.2651 16.3226 20.1455 17.2098 19.9096C18.1562 19.6582 18.9981 19.2665 19.7116 18.7463C20.4682 18.1948 21.1037 17.4818 21.6006 16.6277C22.1249 15.7266 22.5098 14.6417 22.7449 13.4034C22.9527 12.31 22.9916 11.3312 22.8611 10.4937C22.7228 9.60902 22.3904 8.85415 21.873 8.24946C21.5592 7.8832 21.1578 7.56586 20.6799 7.30623L20.6685 7.30001L20.6683 7.28586C20.8352 6.19443 20.8289 5.28401 20.6492 4.50029C20.4688 3.71488 20.1034 3.00809 19.5314 2.34005C18.3463 0.955886 16.1908 0.253906 13.1249 0.253906H4.70489C4.42344 0.253906 4.15027 0.357139 3.93615 0.544654C3.72203 0.732169 3.5802 0.992654 3.53605 1.27774L0.0300853 24.0661C-0.00192262 24.2739 0.0562986 24.4852 0.189849 24.6447C0.323399 24.8051 0.517654 24.897 0.722946 24.897H5.94658L5.94189 24.9225L5.58318 27.2541C5.55558 27.4354 5.60635 27.6192 5.72252 27.7584C5.83869 27.8978 6.00783 27.9781 6.18664 27.9781H10.5679C10.8137 27.9781 11.0518 27.8879 11.2386 27.7242C11.4254 27.5604 11.5496 27.3333 11.588 27.0847L11.631 26.8559Z" fill="#27346A"/>
<path fill-rule="evenodd" clip-rule="evenodd" d="M8.62933 7.31586C8.6848 6.95469 8.91078 6.65913 9.21513 6.50951C9.35365 6.44163 9.50817 6.40374 9.67014 6.40374H16.2701C17.0521 6.40374 17.7811 6.45634 18.4478 6.56636C18.6381 6.59776 18.8233 6.63396 19.0035 6.67497C19.1837 6.71598 19.3583 6.76151 19.5275 6.81242C19.6122 6.83759 19.6952 6.86418 19.7772 6.89218C20.1044 7.00361 20.4091 7.13485 20.6894 7.28701C21.02 5.12705 20.6872 3.65719 19.5473 2.32592C18.2924 0.860301 16.0254 0.232422 13.1248 0.232422H4.70478C4.11208 0.232422 3.60741 0.674483 3.51497 1.27464L0.00900381 24.063C-0.0602546 24.5127 0.278863 24.9191 0.722835 24.9191H5.9208L8.62933 7.31586Z" fill="#27346A"/>
</g>
<path fill-rule="evenodd" clip-rule="evenodd" d="M20.6898 7.28711C20.6647 7.452 20.6369 7.61972 20.6037 7.79252C19.4937 13.636 15.6947 15.6563 10.8427 15.6563H8.37205C7.77935 15.6563 7.27881 16.0986 7.18637 16.6988L5.56253 27.2514C5.5021 27.6445 5.79872 28.0003 6.18696 28.0003H10.5684C11.0869 28.0003 11.5284 27.6137 11.6093 27.0885L11.6523 26.8602L12.4776 21.4956L12.5309 21.1991C12.6117 20.6739 13.0532 20.2873 13.5717 20.2873H14.227C18.4716 20.2873 21.7952 18.5196 22.7665 13.4078C23.1721 11.2719 22.9624 9.48893 21.8893 8.23543C21.5648 7.85644 21.1608 7.54279 20.6898 7.28711Z" fill="#2790C3"/>
<path fill-rule="evenodd" clip-rule="evenodd" d="M19.528 6.81201C19.3589 6.7611 19.1842 6.71556 19.0041 6.67455C18.8239 6.63354 18.6387 6.59734 18.4483 6.56595C17.7817 6.45593 17.0527 6.40332 16.2707 6.40332H9.67072C9.50875 6.40332 9.35423 6.44122 9.21571 6.5091C8.91136 6.65871 8.68538 6.95427 8.62991 7.31544L7.22709 16.4321L7.18652 16.6983C7.27896 16.0981 7.7795 15.6558 8.37219 15.6558H10.8429C15.6948 15.6558 19.4938 13.6355 20.6039 7.79201C20.637 7.6192 20.6649 7.45148 20.69 7.28659C20.4096 7.13443 20.105 7.0032 19.7778 6.89177C19.6958 6.86377 19.6128 6.83718 19.528 6.81201Z" fill="#1F264F"/>
</g>
<defs>
<clipPath id="clip0_506_795">
<rect width="112" height="28" fill="white"/>
</clipPath>
</defs>
</svg>
