<svg width="17" height="14" viewBox="0 0 17 14" fill="none" xmlns="http://www.w3.org/2000/svg">
<path d="M16.3674 2.20118C15.7682 2.46671 15.1244 2.64613 14.4477 2.72722C15.146 2.3094 15.6684 1.6518 15.9174 0.877125C15.2614 1.2668 14.5434 1.54109 13.7946 1.68807C13.2911 1.15045 12.6242 0.794112 11.8974 0.674371C11.1706 0.554631 10.4246 0.678188 9.77527 1.02586C9.1259 1.37353 8.60948 1.92587 8.30618 2.59711C8.00289 3.26836 7.92969 4.02096 8.09796 4.73807C6.76865 4.67132 5.46823 4.32581 4.2811 3.72396C3.09396 3.12211 2.04664 2.27737 1.20711 1.24456C0.920051 1.73974 0.754992 2.31385 0.754992 2.92529C0.754672 3.47572 0.89022 4.01772 1.14961 4.5032C1.409 4.98868 1.78421 5.40263 2.24196 5.70833C1.7111 5.69143 1.19195 5.54799 0.727722 5.28994V5.333C0.727668 6.105 0.99471 6.85324 1.48354 7.45077C1.97236 8.0483 2.65286 8.4583 3.40957 8.61121C2.91711 8.74449 2.4008 8.76412 1.89964 8.66862C2.11314 9.33288 2.52901 9.91376 3.08904 10.3299C3.64908 10.7461 4.32523 10.9767 5.02284 10.9895C3.8386 11.9191 2.37608 12.4234 0.870533 12.4212C0.603842 12.4213 0.337376 12.4057 0.0725098 12.3745C1.60072 13.3571 3.37967 13.8786 5.19651 13.8766C11.3467 13.8766 14.7089 8.78273 14.7089 4.36489C14.7089 4.22136 14.7053 4.0764 14.6989 3.93287C15.3529 3.45992 15.9174 2.87426 16.366 2.20334L16.3674 2.20118Z" fill="white"/>
</svg>
