<svg width="42" height="41" viewBox="0 0 42 41" fill="none" xmlns="http://www.w3.org/2000/svg">
<path d="M25.3457 0.156418C25.082 0.254074 24.7207 0.410324 24.5645 0.498215C24.1543 0.703293 22.9141 1.66032 22.2695 2.26579C21.9766 2.549 21.5664 2.90056 21.3711 3.04704C20.9316 3.37907 21 3.41814 19.5156 2.15837C17.6016 0.547043 16.5176 0.0196991 15.3359 0.10759C14.5352 0.156418 13.8613 0.468918 13.2656 1.06462C12.5234 1.80681 12.084 2.84196 11.4785 5.32243L11.2148 6.40642L10.873 6.47478C10.6875 6.50407 9.86719 6.48454 9.04688 6.42595C6.61523 6.2404 5.35547 6.53337 4.4375 7.5197C3.28516 8.75017 3.23633 10.0978 4.27148 12.676C4.51562 13.2912 4.79883 14.0431 4.90625 14.3361L5.08203 14.8732L4.86719 15.0392C4.74023 15.1271 4.19336 15.4787 3.63672 15.8107C1.81055 16.8947 1.03906 17.5783 0.511719 18.5842C0.277344 19.0138 0.248047 19.1799 0.248047 20.0002C0.248047 20.8302 0.277344 20.9865 0.53125 21.465C0.6875 21.758 1.07812 22.2658 1.41016 22.5881C1.98633 23.1545 2.39648 23.4572 4.23242 24.6291C5.22852 25.2638 5.19922 25.0295 4.49609 26.7873C3.55859 29.131 3.36328 30.1662 3.65625 31.172C3.94922 32.1681 4.45703 32.7834 5.32617 33.2131C6.22461 33.6525 6.68359 33.7013 8.99805 33.6232L11.1367 33.5549L11.2344 33.8283C11.293 33.9748 11.4883 34.717 11.6738 35.4689C12.0547 37.0314 12.3086 37.7052 12.748 38.4084C13.5879 39.7365 14.9648 40.2834 16.4688 39.8732C17.2695 39.6584 17.9629 39.2092 19.252 38.0763C19.8086 37.5881 20.4336 37.0705 20.6387 36.924L21 36.6701L21.3711 36.924C21.5664 37.0705 22.1328 37.5295 22.6113 37.9689C24.9355 40.049 27.2305 40.381 28.7734 38.8869C29.3984 38.2717 29.8184 37.3146 30.3262 35.3127C30.5703 34.3556 30.7656 33.5646 30.7656 33.5353C30.7656 33.3986 31.625 33.3693 32.9434 33.467C35.4238 33.6525 36.6445 33.3595 37.5625 32.383C38.1289 31.7775 38.4023 31.1623 38.4512 30.3517C38.5098 29.5119 38.3242 28.7404 37.6113 26.9045C37.2988 26.0842 37.0059 25.3224 36.9766 25.215C36.918 25.0295 37.0254 24.9318 37.6699 24.5217C38.0898 24.258 38.7832 23.8478 39.2031 23.6037C40.1504 23.0763 41.0977 22.1779 41.4688 21.465C41.7227 20.9865 41.752 20.8302 41.752 20.0002C41.752 19.1701 41.7227 19.0138 41.4688 18.5353C41.0586 17.7345 39.9746 16.7482 38.5488 15.8693C37.875 15.4494 37.2207 15.0295 37.1133 14.9416L36.9082 14.7756L37.1426 14.1408C37.2793 13.7892 37.5723 13.0275 37.7969 12.4416C38.4707 10.6838 38.6074 9.72673 38.3242 8.7697C37.9629 7.55876 37.1621 6.81657 35.8438 6.47478C35.2969 6.32829 34.916 6.31853 33.041 6.37712L30.8633 6.44548L30.7656 6.18181C30.707 6.03532 30.5215 5.32243 30.3359 4.59001C30.1504 3.85759 29.9062 2.98845 29.7793 2.66618C29.3398 1.48454 28.627 0.634933 27.748 0.244308C27.1133 -0.0388947 25.9805 -0.0779572 25.3457 0.156418ZM27.9141 13.0275C29.0566 13.506 29.5254 14.7951 28.9395 15.8791C28.5684 16.5627 20.4434 26.6603 20.0527 26.9338C19.584 27.256 18.998 27.3537 18.4121 27.217C17.9531 27.1095 17.7871 26.9728 15.502 24.6974C14.1641 23.3791 12.9922 22.1291 12.8848 21.9338C12.6309 21.4455 12.6406 20.6056 12.8945 20.1076C13.334 19.2482 14.3105 18.799 15.2676 19.0236C15.7363 19.1408 15.8926 19.258 17.2695 20.6252C18.168 21.5138 18.793 22.051 18.832 21.9924C18.8711 21.9338 20.4531 19.9416 22.3574 17.5783C26.1074 12.9006 26.1367 12.8713 27.084 12.8713C27.3379 12.8713 27.709 12.9396 27.9141 13.0275Z" fill="#00AEEF"/>
</svg>
