<svg width="114" height="114" viewBox="0 0 114 114" fill="none" xmlns="http://www.w3.org/2000/svg">
<path d="M50.6206 72.045H42.7921L47.6848 41.9758H55.5142L50.6206 72.045ZM36.2062 41.9758L28.7427 62.6576L27.8596 58.204L27.8604 58.2056L25.2262 44.6832C25.2262 44.6832 24.9077 41.9758 21.5126 41.9758H9.17408L9.0293 42.4849C9.0293 42.4849 12.8024 43.2699 17.2182 45.9218L24.0197 72.0458H32.1764L44.6316 41.9758H36.2062V41.9758ZM97.782 72.045H104.97L98.703 41.975H92.4099C89.5038 41.975 88.796 44.2158 88.796 44.2158L77.1203 72.045H85.281L86.913 67.5786H96.8651L97.782 72.045ZM89.1676 61.4085L93.281 50.1559L95.595 61.4085H89.1676ZM77.7324 49.2067L78.8496 42.7495C78.8496 42.7495 75.4022 41.4385 71.8084 41.4385C67.9235 41.4385 58.6978 43.1364 58.6978 51.3929C58.6978 59.1612 69.5257 59.2577 69.5257 63.3381C69.5257 67.4185 59.8134 66.6874 56.6081 64.1143L55.4442 70.8659C55.4442 70.8659 58.9399 72.5638 64.2807 72.5638C69.6231 72.5638 77.6825 69.7977 77.6825 62.2691C77.6825 54.451 66.7572 53.7231 66.7572 50.324C66.758 46.924 74.3823 47.3608 77.7324 49.2067V49.2067Z" fill="white"/>
<path d="M27.8604 58.2045L25.2262 44.682C25.2262 44.682 24.9077 41.9746 21.5126 41.9746H9.17408L9.0293 42.4838C9.0293 42.4838 14.9597 43.7128 20.6479 48.3176C26.0868 52.7189 27.8604 58.2045 27.8604 58.2045Z" fill="#E6A540"/>
</svg>
